<svg xmlns="http://www.w3.org/2000/svg" xmlns:xlink="http://www.w3.org/1999/xlink" viewBox="0 0 322.29 431.56"><defs><style>.cls-1{fill:url(#Social_Shcool);}.cls-2{fill:url(#Social_Shcool-2);}.cls-3{fill:url(#Social_Shcool-3);}</style><linearGradient id="Social_Shcool" x1="198.63" y1="399.82" x2="288.23" y2="399.82" gradientUnits="userSpaceOnUse"><stop offset="0" stop-color="#7c5aa2"/><stop offset="1" stop-color="#ea4c75"/></linearGradient><linearGradient id="Social_Shcool-2" x1="60.41" y1="401.51" x2="119.76" y2="401.51" xlink:href="#Social_Shcool"/><linearGradient id="Social_Shcool-3" x1="0" y1="161.14" x2="322.29" y2="161.14" xlink:href="#Social_Shcool"/></defs><g id="Camada_2" data-name="Camada 2"><g id="Capa_1" data-name="Capa 1"><path class="cls-1" d="M273.32,370.64l-39.84,39.84-19.94-19.94a8.73,8.73,0,0,0-12.35,12.35L227.31,429a8.73,8.73,0,0,0,12.35,0l46-46a8.73,8.73,0,0,0-12.35-12.35Z"/><path class="cls-2" d="M117.21,374.39a8.76,8.76,0,0,0-12.36,0L90.09,389.16,75.32,374.4A8.73,8.73,0,0,0,63,386.75l14.76,14.76L63,416.28a8.73,8.73,0,1,0,12.35,12.35l14.77-14.76,14.76,14.76a8.74,8.74,0,1,0,12.36-12.35l-14.77-14.77,14.77-14.76A8.75,8.75,0,0,0,117.21,374.39Z"/><path class="cls-3" d="M322.29,161.14C322.29,72.29,250,0,161.14,0S0,72.29,0,161.14,72.29,322.29,161.14,322.29,322.29,250,322.29,161.14ZM161.14,17.47c79.22,0,143.68,64.45,143.68,143.67a143,143,0,0,1-29.1,86.59c-19.23-33.91-48.69-57.82-81.94-67.38a64.16,64.16,0,1,0-65.26,0c-33.25,9.56-62.72,33.48-82,67.39a142.91,142.91,0,0,1-29.1-86.59C17.47,81.92,81.92,17.47,161.14,17.47ZM114.47,125.13a46.69,46.69,0,1,1,46.69,46.69A46.73,46.73,0,0,1,114.47,125.13Zm46.67,179.69A143.24,143.24,0,0,1,58.8,261.87c21.77-42.45,60.74-68.7,102.34-68.7s80.58,26.25,102.35,68.7A143.27,143.27,0,0,1,161.14,304.82Z"/></g></g></svg>