<svg xmlns="http://www.w3.org/2000/svg" viewBox="0 0 348.37 441.55"><defs><style>.cls-1{fill:#9e5aa0;}</style></defs><g id="Camada_2" data-name="Camada 2"><g id="Capa_1" data-name="Capa 1"><path class="cls-1" d="M110.62,56.31H299.69a8.74,8.74,0,0,0,0-17.47H110.62a8.74,8.74,0,1,0,0,17.47Z"/><path class="cls-1" d="M110.62,100.73H218.17a8.74,8.74,0,0,0,0-17.47H110.62a8.74,8.74,0,1,0,0,17.47Z"/><path class="cls-1" d="M42.08,291H231.14a8.74,8.74,0,1,0,0-17.47H42.08a8.74,8.74,0,1,0,0,17.47Z"/><path class="cls-1" d="M42.08,335.39h61a8.74,8.74,0,0,0,0-17.47h-61a8.74,8.74,0,1,0,0,17.47Z"/><path class="cls-1" d="M339.64,0H77.28a8.73,8.73,0,0,0-8.74,8.73V139.1a8.74,8.74,0,0,0,8.74,8.74H242l56.49,56.48a8.72,8.72,0,0,0,6.17,2.56,8.84,8.84,0,0,0,3.34-.66,8.74,8.74,0,0,0,5.4-8.07V147.84h26.2a8.74,8.74,0,0,0,8.73-8.74V8.73A8.73,8.73,0,0,0,339.64,0ZM330.9,130.37H304.7A8.73,8.73,0,0,0,296,139.1v38l-44.14-44.13a8.73,8.73,0,0,0-6.17-2.56H86V17.47H330.9Z"/><path class="cls-1" d="M271.1,234.66H8.73A8.73,8.73,0,0,0,0,243.4V373.77a8.73,8.73,0,0,0,8.73,8.73H34.94v50.31A8.73,8.73,0,0,0,49.85,439l56.48-56.49H271.1a8.73,8.73,0,0,0,8.73-8.73V243.4A8.73,8.73,0,0,0,271.1,234.66ZM262.36,365H102.72a8.73,8.73,0,0,0-6.18,2.56L52.4,411.73v-38A8.73,8.73,0,0,0,43.67,365H17.47V252.13H262.36Z"/></g></g></svg>