<svg width="512" height="512" xmlns="http://www.w3.org/2000/svg">

 <g>
  <title>background</title>
  <rect fill="none" id="canvas_background" height="402" width="582" y="-1" x="-1"/>
 </g>
 <g>
  <title>Layer 1</title>
  <path fill="#a5331d" id="svg_1" d="m454.27,250.88a6.16,6.16 0 0 0 0,-1c0,-0.05 0,-0.09 0,-0.14a6.28,6.28 0 0 0 -0.45,-1a6.15,6.15 0 0 0 -0.61,-1.2c0,-0.05 0,-0.11 -0.08,-0.15c-23,-29.14 0.18,-67.59 0.42,-68c0.08,-0.14 0.09,-0.29 0.16,-0.43a6.9,6.9 0 0 0 0.29,-0.8a6.08,6.08 0 0 0 0.37,-2.1c0,-0.18 0.1,-0.33 0.09,-0.51s-0.11,-0.22 -0.13,-0.34a6.08,6.08 0 0 0 -0.92,-2.54c0,-0.05 0,-0.12 -0.08,-0.17a6.24,6.24 0 0 0 -1.82,-1.72c-0.12,-0.07 -0.25,-0.07 -0.37,-0.14s-0.15,-0.16 -0.24,-0.2l-215.34,-102a6.32,6.32 0 0 0 -6.31,0.55l-157.25,111.63s0,0.06 -0.07,0.09a6.1,6.1 0 0 0 -1.62,1.73c-1.13,1.81 -26.21,43.37 -2.06,78.75c-6,11.53 -21.71,48 2.46,78.63a6.31,6.31 0 0 0 2.24,1.79l215.35,102a6.3,6.3 0 0 0 2.67,0.6l0,0a6.11,6.11 0 0 0 3.21,-1c0.13,-0.07 0.28,0 0.4,-0.12l157.17,-111.7l0,0c0.07,-0.05 0.17,0 0.24,-0.08a6.09,6.09 0 0 0 2.12,-3.49c0.05,-0.19 0.15,-0.36 0.18,-0.54a6.76,6.76 0 0 0 0,-1.19a6.24,6.24 0 0 0 -0.1,-1.29a5.27,5.27 0 0 0 -0.22,-0.49a6.06,6.06 0 0 0 -0.72,-1.63c-0.05,-0.07 -0.14,-0.1 -0.19,-0.17c-23,-29.14 0.18,-67.58 0.42,-68c0,0 0,-0.1 0.06,-0.15a5.77,5.77 0 0 0 0.42,-1.14a5.86,5.86 0 0 0 0.36,-1a0.91,0.91 0 0 0 0,-0.17a5.85,5.85 0 0 0 -0.05,-1.17zm-161.76,178.25c-15.43,-25.54 -0.25,-55.85 3.1,-61.9l138.11,-98.1c-4.48,15.16 -6.53,36.18 5.73,55.65l-146.94,104.35zm-214.17,-235.13l204,96.6c-5.27,10.91 -14.14,34.63 -6.08,58.3l-196.69,-93.16c-16.78,-22.74 -6.57,-50.63 -1.23,-61.74zm214.17,160.08c-15.56,-25.78 0,-56.4 3.19,-62.06l138,-98c-4.49,15.17 -6.53,36.22 5.77,55.7l-146.96,104.36zm-59.09,-272.77l202.37,95.86l-145.48,103.32l-27.7,-13.12l-174.67,-82.74l145.48,-103.32zm-153.77,249.62c-16.89,-22.7 -6.65,-50.62 -1.35,-61.83l204,96.6c-5.29,11 -14.13,34.68 -6,58.33l-196.65,-93.1z"/>
 </g>
</svg>