<?xml version="1.0" encoding="utf-8"?>
<!-- Generator: Adobe Illustrator 24.1.2, SVG Export Plug-In . SVG Version: 6.00 Build 0)  -->
<svg version="1.1" id="Camada_1" xmlns="http://www.w3.org/2000/svg" xmlns:xlink="http://www.w3.org/1999/xlink" x="0px" y="0px"
	 viewBox="0 0 512 512" style="enable-background:new 0 0 512 512;" xml:space="preserve">
<style type="text/css">
	.st0{fill:none;}
	.st1{fill:url(#svg_1_1_);}
</style>
<g>
	<rect id="canvas_background" x="-1" y="-1" class="st0" width="582" height="402"/>
</g>
<g>
	<linearGradient id="svg_1_1_" gradientUnits="userSpaceOnUse" x1="57.6732" y1="256.0268" x2="454.4607" y2="256.0268">
		<stop  offset="0" style="stop-color:#B24EFF"/>
		<stop  offset="1" style="stop-color:#F54B75"/>
	</linearGradient>
	<path id="svg_1" class="st1" d="M454.3,250.9c0-0.3,0-0.7,0-1c0-0.1,0-0.1,0-0.1c-0.1-0.3-0.3-0.7-0.5-1c-0.2-0.4-0.4-0.8-0.6-1.2
		c0-0.1,0-0.1-0.1-0.1c-23-29.1,0.2-67.6,0.4-68c0.1-0.1,0.1-0.3,0.2-0.4c0.1-0.3,0.2-0.5,0.3-0.8c0.2-0.7,0.4-1.4,0.4-2.1
		c0-0.2,0.1-0.3,0.1-0.5s-0.1-0.2-0.1-0.3c-0.1-0.9-0.4-1.8-0.9-2.5c0-0.1,0-0.1-0.1-0.2c-0.5-0.7-1.1-1.3-1.8-1.7
		c-0.1-0.1-0.3-0.1-0.4-0.1s-0.1-0.2-0.2-0.2l-215.3-102c-2.1-1-4.5-0.8-6.3,0.6L72,180.6c0,0,0,0.1-0.1,0.1
		c-0.6,0.5-1.2,1.1-1.6,1.7c-1.1,1.8-26.2,43.4-2.1,78.7c-6,11.5-21.7,48,2.5,78.6c0.6,0.8,1.4,1.4,2.2,1.8l215.4,102
		c0.8,0.4,1.7,0.6,2.7,0.6l0,0c1.1,0,2.3-0.4,3.2-1c0.1-0.1,0.3,0,0.4-0.1l157.2-111.7l0,0c0.1,0,0.2,0,0.2-0.1
		c1.1-0.9,1.8-2.1,2.1-3.5c0-0.2,0.1-0.4,0.2-0.5c0-0.4,0-0.8,0-1.2c0-0.4,0-0.9-0.1-1.3c-0.1-0.2-0.1-0.3-0.2-0.5
		c-0.2-0.6-0.4-1.1-0.7-1.6c0-0.1-0.1-0.1-0.2-0.2c-23-29.1,0.2-67.6,0.4-68c0,0,0-0.1,0.1-0.1c0.2-0.4,0.3-0.7,0.4-1.1
		c0.2-0.3,0.3-0.7,0.4-1c0-0.1,0-0.1,0-0.2C454.3,251.7,454.3,251.3,454.3,250.9L454.3,250.9z M292.5,429.1
		c-15.4-25.5-0.3-55.9,3.1-61.9l138.1-98.1c-4.5,15.2-6.5,36.2,5.7,55.6L292.5,429.1L292.5,429.1z M78.3,194l204,96.6
		c-5.3,10.9-14.1,34.6-6.1,58.3L79.6,255.7C62.8,233,73,205.1,78.3,194L78.3,194z M292.5,354.1c-15.6-25.8,0-56.4,3.2-62.1l138-98
		c-4.5,15.2-6.5,36.2,5.8,55.7L292.5,354.1z M233.4,81.3l202.4,95.9L290.3,280.5l-27.7-13.1L87.9,184.6L233.4,81.3L233.4,81.3z
		 M79.7,330.9c-16.9-22.7-6.7-50.6-1.3-61.8l204,96.6c-5.3,11-14.1,34.7-6,58.3L79.7,330.9L79.7,330.9z"/>
</g>
</svg>
