<svg xmlns="http://www.w3.org/2000/svg" xmlns:xlink="http://www.w3.org/1999/xlink" viewBox="0 0 297.21 297.21"><defs><style>.cls-1{fill:url(#Social_Shcool);}.cls-2{fill:url(#Social_Shcool-2);}</style><linearGradient id="Social_Shcool" x1="98.9" y1="148.61" x2="221.6" y2="148.61" gradientUnits="userSpaceOnUse"><stop offset="0" stop-color="#7c5aa2"/><stop offset="1" stop-color="#ea4c75"/></linearGradient><linearGradient id="Social_Shcool-2" x1="0" y1="148.61" x2="297.21" y2="148.61" xlink:href="#Social_Shcool"/></defs><g id="Camada_2" data-name="Camada 2"><g id="Capa_1" data-name="Capa 1"><path class="cls-1" d="M217.69,141.33,112.46,71.59A8.73,8.73,0,0,0,98.9,78.87V218.35a8.74,8.74,0,0,0,13.56,7.28l105.23-69.74a8.73,8.73,0,0,0,0-14.56ZM116.37,202.08v-107l80.69,53.48Z"/><path class="cls-2" d="M148.61,0C66.66,0,0,66.66,0,148.61s66.66,148.6,148.61,148.6,148.6-66.66,148.6-148.6S230.55,0,148.61,0Zm0,279.75c-72.31,0-131.14-58.83-131.14-131.14S76.3,17.47,148.61,17.47,279.75,76.3,279.75,148.61,220.92,279.75,148.61,279.75Z"/></g></g></svg>