<svg xmlns="http://www.w3.org/2000/svg" viewBox="0 0 297.21 297.21"><defs><style>.cls-1{fill:#9e5aa0;}</style></defs><g id="Camada_2" data-name="Camada 2"><g id="Capa_1" data-name="Capa 1"><path class="cls-1" d="M217.69,141.33,112.46,71.59A8.73,8.73,0,0,0,98.9,78.87V218.35a8.74,8.74,0,0,0,13.56,7.28l105.23-69.74a8.73,8.73,0,0,0,0-14.56ZM116.37,202.08v-107l80.69,53.48Z"/><path class="cls-1" d="M148.61,0C66.66,0,0,66.66,0,148.61s66.66,148.6,148.61,148.6,148.6-66.66,148.6-148.6S230.55,0,148.61,0Zm0,279.75c-72.31,0-131.14-58.83-131.14-131.14S76.3,17.47,148.61,17.47,279.75,76.3,279.75,148.61,220.92,279.75,148.61,279.75Z"/></g></g></svg>