<svg xmlns="http://www.w3.org/2000/svg" xmlns:xlink="http://www.w3.org/1999/xlink" viewBox="0 0 250.47 307.09"><defs><style>.cls-1{isolation:isolate;}.cls-2,.cls-68{opacity:0.2;}.cls-25,.cls-3,.cls-40{opacity:0;}.cls-26,.cls-4,.cls-41{opacity:0.09;}.cls-27,.cls-42,.cls-5{opacity:0.18;}.cls-28,.cls-43,.cls-6{opacity:0.27;}.cls-29,.cls-44,.cls-7{opacity:0.36;}.cls-30,.cls-45,.cls-8{opacity:0.45;}.cls-31,.cls-46,.cls-9{opacity:0.55;}.cls-10,.cls-32,.cls-47{opacity:0.64;}.cls-11,.cls-33,.cls-48{opacity:0.73;}.cls-12,.cls-34,.cls-49{opacity:0.82;}.cls-13,.cls-35,.cls-50{opacity:0.91;}.cls-14{fill:url(#linear-gradient);}.cls-101,.cls-102,.cls-106,.cls-107,.cls-111,.cls-112,.cls-15,.cls-23,.cls-38,.cls-53,.cls-55,.cls-57,.cls-59,.cls-91,.cls-92,.cls-96,.cls-97{mix-blend-mode:color-dodge;}.cls-15{fill:url(#radial-gradient);}.cls-16{opacity:0.6;fill:url(#radial-gradient-2);}.cls-16,.cls-60,.cls-62,.cls-63,.cls-64,.cls-65,.cls-67{mix-blend-mode:screen;}.cls-17{fill:url(#linear-gradient-2);}.cls-18{fill:url(#linear-gradient-3);}.cls-19{fill:url(#linear-gradient-4);}.cls-20{fill:url(#linear-gradient-5);}.cls-21{fill:url(#linear-gradient-6);}.cls-22{fill:url(#linear-gradient-7);}.cls-23{fill:url(#radial-gradient-3);}.cls-103,.cls-108,.cls-24,.cls-88,.cls-93,.cls-98{opacity:0.3;}.cls-103,.cls-108,.cls-113,.cls-115,.cls-121,.cls-125,.cls-24,.cls-78,.cls-88,.cls-93,.cls-98{mix-blend-mode:multiply;}.cls-25{fill:url(#linear-gradient-8);}.cls-26{fill:url(#linear-gradient-9);}.cls-27{fill:url(#linear-gradient-10);}.cls-28{fill:url(#linear-gradient-11);}.cls-29{fill:url(#linear-gradient-12);}.cls-30{fill:url(#linear-gradient-13);}.cls-31{fill:url(#linear-gradient-14);}.cls-32{fill:url(#linear-gradient-15);}.cls-33{fill:url(#linear-gradient-16);}.cls-34{fill:url(#linear-gradient-17);}.cls-35{fill:url(#linear-gradient-18);}.cls-36{fill:url(#linear-gradient-19);}.cls-37{fill:url(#linear-gradient-20);}.cls-38{fill:url(#radial-gradient-4);}.cls-39{fill:#fff;}.cls-40{fill:url(#linear-gradient-21);}.cls-41{fill:url(#linear-gradient-22);}.cls-42{fill:url(#linear-gradient-23);}.cls-43{fill:url(#linear-gradient-24);}.cls-44{fill:url(#linear-gradient-25);}.cls-45{fill:url(#linear-gradient-26);}.cls-46{fill:url(#linear-gradient-27);}.cls-47{fill:url(#linear-gradient-28);}.cls-48{fill:url(#linear-gradient-29);}.cls-49{fill:url(#linear-gradient-30);}.cls-50{fill:url(#linear-gradient-31);}.cls-51{fill:url(#linear-gradient-32);}.cls-52{fill:url(#linear-gradient-33);}.cls-53{fill:url(#radial-gradient-5);}.cls-54{fill:url(#linear-gradient-34);}.cls-55{fill:url(#radial-gradient-6);}.cls-56{fill:url(#linear-gradient-35);}.cls-57{fill:url(#radial-gradient-7);}.cls-58{fill:url(#linear-gradient-36);}.cls-59{fill:url(#radial-gradient-8);}.cls-60,.cls-63{opacity:0.5;}.cls-61,.cls-63,.cls-64,.cls-65,.cls-67{fill:#b086cc;}.cls-65{opacity:0.4;}.cls-66{fill:#45108a;}.cls-67{opacity:0.7;}.cls-69{fill:url(#New_Gradient_Swatch_copy_9);}.cls-70{fill:#9d9eb3;}.cls-71{fill:url(#New_Gradient_Swatch_copy_10);}.cls-72{fill:url(#New_Gradient_Swatch_copy_10-2);}.cls-73{fill:url(#New_Gradient_Swatch_copy_10-3);}.cls-74{fill:url(#New_Gradient_Swatch_copy_10-4);}.cls-75{fill:url(#New_Gradient_Swatch_copy_10-5);}.cls-76{fill:url(#New_Gradient_Swatch_copy_18);}.cls-77{fill:url(#New_Gradient_Swatch_copy_9-2);}.cls-78{fill:#d1d3d4;}.cls-79{fill:url(#New_Gradient_Swatch_copy_9-3);}.cls-80{fill:url(#New_Gradient_Swatch_copy_10-6);}.cls-81{fill:url(#linear-gradient-37);}.cls-82{fill:url(#New_Gradient_Swatch_copy_10-7);}.cls-83{fill:url(#New_Gradient_Swatch_copy_8);}.cls-84{fill:url(#linear-gradient-38);}.cls-85{fill:url(#New_Gradient_Swatch_copy_8-2);}.cls-86{fill:url(#New_Gradient_Swatch_copy_10-8);}.cls-87{fill:url(#New_Gradient_Swatch_copy_8-3);}.cls-88{fill:url(#radial-gradient-9);}.cls-89{fill:url(#New_Gradient_Swatch_copy_17);}.cls-90{fill:url(#New_Gradient_Swatch_copy_8-4);}.cls-91{fill:url(#radial-gradient-10);}.cls-92{fill:url(#radial-gradient-11);}.cls-93{fill:url(#radial-gradient-12);}.cls-94{fill:url(#New_Gradient_Swatch_copy_17-2);}.cls-95{fill:url(#New_Gradient_Swatch_copy_8-5);}.cls-96{fill:url(#radial-gradient-13);}.cls-97{fill:url(#radial-gradient-14);}.cls-98{fill:url(#radial-gradient-15);}.cls-99{fill:url(#New_Gradient_Swatch_copy_17-3);}.cls-100{fill:url(#New_Gradient_Swatch_copy_8-6);}.cls-101{fill:url(#radial-gradient-16);}.cls-102{fill:url(#radial-gradient-17);}.cls-103{fill:url(#radial-gradient-18);}.cls-104{fill:url(#New_Gradient_Swatch_copy_17-4);}.cls-105{fill:url(#New_Gradient_Swatch_copy_8-7);}.cls-106{fill:url(#radial-gradient-19);}.cls-107{fill:url(#radial-gradient-20);}.cls-108{fill:url(#radial-gradient-21);}.cls-109{fill:url(#New_Gradient_Swatch_copy_17-5);}.cls-110{fill:url(#New_Gradient_Swatch_copy_8-8);}.cls-111{fill:url(#radial-gradient-22);}.cls-112{fill:url(#radial-gradient-23);}.cls-113{fill:url(#radial-gradient-24);}.cls-114{fill:url(#linear-gradient-39);}.cls-115{opacity:0.1;}.cls-116{fill:url(#linear-gradient-40);}.cls-117{fill:url(#linear-gradient-41);}.cls-118{fill:url(#New_Gradient_Swatch_copy_25);}.cls-119{fill:url(#linear-gradient-42);}.cls-120{fill:url(#linear-gradient-43);}.cls-121{fill:url(#radial-gradient-25);}.cls-122{fill:url(#linear-gradient-44);}.cls-123{fill:url(#linear-gradient-45);}.cls-124{fill:url(#linear-gradient-46);}.cls-125{fill:#c7bcd6;}.cls-126{fill:url(#New_Gradient_Swatch_copy_8-9);}.cls-127{fill:url(#New_Gradient_Swatch_copy_8-10);}.cls-128{fill:url(#New_Gradient_Swatch_copy_8-11);}.cls-129{fill:url(#linear-gradient-47);}.cls-130{fill:url(#New_Gradient_Swatch_copy_8-12);}.cls-131{fill:url(#New_Gradient_Swatch_copy_25-2);}.cls-132{fill:url(#linear-gradient-48);}.cls-133{fill:url(#linear-gradient-49);}.cls-134{fill:url(#New_Gradient_Swatch_copy_8-13);}.cls-135{fill:url(#New_Gradient_Swatch_copy_8-14);}.cls-136{fill:url(#New_Gradient_Swatch_copy_8-15);}.cls-137{fill:url(#New_Gradient_Swatch_copy_8-16);}.cls-138{fill:url(#New_Gradient_Swatch_copy_8-17);}.cls-139{fill:url(#New_Gradient_Swatch_copy_8-18);}.cls-140{fill:url(#New_Gradient_Swatch_copy_8-19);}.cls-141{fill:url(#New_Gradient_Swatch_copy_8-20);}.cls-142{fill:url(#New_Gradient_Swatch_copy_8-21);}</style><linearGradient id="linear-gradient" x1="70.6" y1="9.38" x2="170.8" y2="182.95" gradientUnits="userSpaceOnUse"><stop offset="0.06" stop-color="#200041"/><stop offset="0.26" stop-color="#210243"/><stop offset="0.36" stop-color="#25084b"/><stop offset="0.43" stop-color="#2c1358"/><stop offset="0.47" stop-color="#311b61"/><stop offset="0.48" stop-color="#351f65"/><stop offset="0.5" stop-color="#422c73"/><stop offset="0.51" stop-color="#584188"/><stop offset="0.52" stop-color="#765fa7"/><stop offset="0.53" stop-color="#8770b8"/><stop offset="0.54" stop-color="#7e67ae"/><stop offset="0.56" stop-color="#5c468d"/><stop offset="0.59" stop-color="#442e75"/><stop offset="0.61" stop-color="#362066"/><stop offset="0.63" stop-color="#311b61"/><stop offset="0.67" stop-color="#2a1155"/><stop offset="0.75" stop-color="#230446"/><stop offset="0.81" stop-color="#200041"/><stop offset="1" stop-color="#200041"/></linearGradient><radialGradient id="radial-gradient" cx="226.32" cy="79.9" r="188.05" gradientUnits="userSpaceOnUse"><stop offset="0" stop-color="#711f56"/><stop offset="0.16" stop-color="#6c1e52"/><stop offset="0.36" stop-color="#5c1946"/><stop offset="0.58" stop-color="#431233"/><stop offset="0.82" stop-color="#200918"/><stop offset="1"/></radialGradient><radialGradient id="radial-gradient-2" cx="194.86" cy="66.46" r="110.79" gradientUnits="userSpaceOnUse"><stop offset="0" stop-color="#af8afc"/><stop offset="1" stop-color="#10054d"/></radialGradient><linearGradient id="linear-gradient-2" x1="203.79" y1="169.44" x2="-102.47" y2="73.57" gradientUnits="userSpaceOnUse"><stop offset="0.19" stop-color="#3d065f"/><stop offset="0.93" stop-color="#3d065f"/></linearGradient><linearGradient id="linear-gradient-3" x1="207.79" y1="287.97" x2="52.26" y2="-40.67" gradientUnits="userSpaceOnUse"><stop offset="0" stop-color="#311b61"/><stop offset="0.2" stop-color="#290f52"/><stop offset="0.49" stop-color="#200041"/><stop offset="1" stop-color="#0f001f"/></linearGradient><linearGradient id="linear-gradient-4" x1="93.79" y1="150.29" x2="191.47" y2="150.29" xlink:href="#linear-gradient-3"/><linearGradient id="linear-gradient-5" x1="82.75" y1="36.12" x2="231.36" y2="319.49" gradientUnits="userSpaceOnUse"><stop offset="0.01" stop-color="#9f19ab"/><stop offset="0.43" stop-color="#5f27bd"/><stop offset="0.9" stop-color="#3d065f"/></linearGradient><linearGradient id="linear-gradient-6" x1="-412.8" y1="10409.06" x2="-395.32" y2="10409.06" gradientTransform="matrix(-0.5, 1.44, -0.87, 0.5, 9013.32, -4502.98)" xlink:href="#linear-gradient-3"/><linearGradient id="linear-gradient-7" x1="205.61" y1="118.52" x2="193.55" y2="118" gradientUnits="userSpaceOnUse"><stop offset="0" stop-color="#3d065f"/><stop offset="1" stop-color="#5f27bd"/></linearGradient><radialGradient id="radial-gradient-3" cx="199.55" cy="113.38" r="7.08" xlink:href="#radial-gradient"/><linearGradient id="linear-gradient-8" x1="39.58" y1="-31.65" x2="171.8" y2="220.48" xlink:href="#linear-gradient-5"/><linearGradient id="linear-gradient-9" x1="39.92" y1="-30.71" x2="171.5" y2="220.19" xlink:href="#linear-gradient-5"/><linearGradient id="linear-gradient-10" x1="40.25" y1="-29.77" x2="171.19" y2="219.9" xlink:href="#linear-gradient-5"/><linearGradient id="linear-gradient-11" x1="40.59" y1="-28.83" x2="170.88" y2="219.62" xlink:href="#linear-gradient-5"/><linearGradient id="linear-gradient-12" x1="40.93" y1="-27.88" x2="170.57" y2="219.33" xlink:href="#linear-gradient-5"/><linearGradient id="linear-gradient-13" x1="41.26" y1="-26.94" x2="170.27" y2="219.04" xlink:href="#linear-gradient-5"/><linearGradient id="linear-gradient-14" x1="41.6" y1="-26" x2="169.96" y2="218.76" xlink:href="#linear-gradient-5"/><linearGradient id="linear-gradient-15" x1="41.94" y1="-25.05" x2="169.65" y2="218.47" xlink:href="#linear-gradient-5"/><linearGradient id="linear-gradient-16" x1="42.28" y1="-24.11" x2="169.34" y2="218.18" xlink:href="#linear-gradient-5"/><linearGradient id="linear-gradient-17" x1="42.61" y1="-23.17" x2="169.04" y2="217.89" xlink:href="#linear-gradient-5"/><linearGradient id="linear-gradient-18" x1="42.95" y1="-22.22" x2="168.73" y2="217.61" xlink:href="#linear-gradient-5"/><linearGradient id="linear-gradient-19" x1="43.29" y1="-21.28" x2="168.42" y2="217.32" xlink:href="#linear-gradient-5"/><linearGradient id="linear-gradient-20" x1="42.76" y1="-28.82" x2="168.33" y2="210.6" xlink:href="#linear-gradient-5"/><radialGradient id="radial-gradient-4" cx="142.63" cy="80.25" r="87.84" xlink:href="#radial-gradient"/><linearGradient id="linear-gradient-21" x1="65.77" y1="57.15" x2="163.85" y2="244.18" xlink:href="#linear-gradient-5"/><linearGradient id="linear-gradient-22" x1="66.12" y1="58.48" x2="163.62" y2="244.39" xlink:href="#linear-gradient-5"/><linearGradient id="linear-gradient-23" x1="66.48" y1="59.79" x2="163.39" y2="244.59" xlink:href="#linear-gradient-5"/><linearGradient id="linear-gradient-24" x1="66.83" y1="61.11" x2="163.17" y2="244.8" xlink:href="#linear-gradient-5"/><linearGradient id="linear-gradient-25" x1="67.19" y1="62.42" x2="162.95" y2="245.02" xlink:href="#linear-gradient-5"/><linearGradient id="linear-gradient-26" x1="67.55" y1="63.73" x2="162.74" y2="245.23" xlink:href="#linear-gradient-5"/><linearGradient id="linear-gradient-27" x1="67.91" y1="65.03" x2="162.53" y2="245.45" xlink:href="#linear-gradient-5"/><linearGradient id="linear-gradient-28" x1="68.27" y1="66.32" x2="162.33" y2="245.68" xlink:href="#linear-gradient-5"/><linearGradient id="linear-gradient-29" x1="68.64" y1="67.61" x2="162.14" y2="245.91" xlink:href="#linear-gradient-5"/><linearGradient id="linear-gradient-30" x1="69.01" y1="68.9" x2="161.96" y2="246.14" xlink:href="#linear-gradient-5"/><linearGradient id="linear-gradient-31" x1="69.37" y1="70.18" x2="161.78" y2="246.38" xlink:href="#linear-gradient-5"/><linearGradient id="linear-gradient-32" x1="69.74" y1="71.45" x2="161.61" y2="246.63" xlink:href="#linear-gradient-5"/><linearGradient id="linear-gradient-33" x1="55.39" y1="19.01" x2="231.84" y2="355.48" xlink:href="#linear-gradient-5"/><radialGradient id="radial-gradient-5" cx="142.63" cy="116.39" r="87.84" xlink:href="#radial-gradient"/><linearGradient id="linear-gradient-34" x1="81.24" y1="92.56" x2="238.2" y2="391.85" xlink:href="#linear-gradient-5"/><radialGradient id="radial-gradient-6" cx="142.63" cy="165.72" r="87.84" xlink:href="#radial-gradient"/><linearGradient id="linear-gradient-35" x1="103.86" y1="164.72" x2="219.13" y2="384.52" xlink:href="#linear-gradient-5"/><radialGradient id="radial-gradient-7" cx="142.63" cy="220.78" r="87.84" xlink:href="#radial-gradient"/><linearGradient id="linear-gradient-36" x1="118.27" y1="205.3" x2="212.54" y2="385.06" xlink:href="#linear-gradient-5"/><radialGradient id="radial-gradient-8" cx="142.63" cy="247.01" r="87.84" xlink:href="#radial-gradient"/><linearGradient id="New_Gradient_Swatch_copy_9" x1="69.26" y1="247.8" x2="64.87" y2="302.03" gradientUnits="userSpaceOnUse"><stop offset="0.04" stop-color="#9f19ab"/><stop offset="0.24" stop-color="#ae25b1"/><stop offset="0.65" stop-color="#d744bf"/><stop offset="1" stop-color="#ff63ce"/></linearGradient><linearGradient id="New_Gradient_Swatch_copy_10" x1="120.82" y1="169" x2="63.2" y2="278.8" gradientUnits="userSpaceOnUse"><stop offset="0.04" stop-color="#9d9eb3"/><stop offset="0.58" stop-color="#d4d1d8"/><stop offset="1" stop-color="#eeebf2"/></linearGradient><linearGradient id="New_Gradient_Swatch_copy_10-2" x1="120.82" y1="167.3" x2="63.2" y2="277.09" xlink:href="#New_Gradient_Swatch_copy_10"/><linearGradient id="New_Gradient_Swatch_copy_10-3" x1="120.82" y1="165.6" x2="63.2" y2="275.39" xlink:href="#New_Gradient_Swatch_copy_10"/><linearGradient id="New_Gradient_Swatch_copy_10-4" x1="120.82" y1="163.8" x2="63.2" y2="273.6" xlink:href="#New_Gradient_Swatch_copy_10"/><linearGradient id="New_Gradient_Swatch_copy_10-5" x1="120.82" y1="161.92" x2="63.2" y2="271.72" xlink:href="#New_Gradient_Swatch_copy_10"/><linearGradient id="New_Gradient_Swatch_copy_18" x1="63.07" y1="258.53" x2="42.78" y2="291.01" gradientUnits="userSpaceOnUse"><stop offset="0.04" stop-color="#9f19ab"/><stop offset="0.16" stop-color="#ae25b1"/><stop offset="0.41" stop-color="#d744bf"/><stop offset="0.63" stop-color="#ff63ce"/><stop offset="0.87" stop-color="#dc48c1"/></linearGradient><linearGradient id="New_Gradient_Swatch_copy_9-2" x1="108.5" y1="174.31" x2="47.12" y2="291.28" xlink:href="#New_Gradient_Swatch_copy_9"/><linearGradient id="New_Gradient_Swatch_copy_9-3" x1="122.12" y1="290.95" x2="179.12" y2="325.95" xlink:href="#New_Gradient_Swatch_copy_9"/><linearGradient id="New_Gradient_Swatch_copy_10-6" x1="15.07" y1="265.78" x2="17.04" y2="251.98" xlink:href="#New_Gradient_Swatch_copy_10"/><linearGradient id="linear-gradient-37" x1="53.21" y1="287.8" x2="58.68" y2="277.85" gradientUnits="userSpaceOnUse"><stop offset="0" stop-color="#300962"/><stop offset="0.53" stop-color="#45108a"/><stop offset="1" stop-color="#6217ab"/></linearGradient><linearGradient id="New_Gradient_Swatch_copy_10-7" x1="35.38" y1="278.04" x2="41.29" y2="267.3" xlink:href="#New_Gradient_Swatch_copy_10"/><linearGradient id="New_Gradient_Swatch_copy_8" x1="20.93" y1="276.31" x2="171.45" y2="242.57" gradientUnits="userSpaceOnUse"><stop offset="0.04" stop-color="#ffa98c"/><stop offset="0.32" stop-color="#ffb892"/><stop offset="0.86" stop-color="#fee1a3"/><stop offset="1" stop-color="#feeca8"/></linearGradient><linearGradient id="linear-gradient-38" x1="64.32" y1="237.93" x2="45.94" y2="267.36" gradientUnits="userSpaceOnUse"><stop offset="0.02" stop-color="#f9b696"/><stop offset="0.72" stop-color="#ffdaa7"/><stop offset="1" stop-color="#ffbb96"/></linearGradient><linearGradient id="New_Gradient_Swatch_copy_8-2" x1="103.43" y1="164.07" x2="52.7" y2="260.75" xlink:href="#New_Gradient_Swatch_copy_8"/><linearGradient id="New_Gradient_Swatch_copy_10-8" x1="394.34" y1="280.28" x2="554.31" y2="244.42" gradientTransform="translate(-377.75)" xlink:href="#New_Gradient_Swatch_copy_10"/><linearGradient id="New_Gradient_Swatch_copy_8-3" x1="14.32" y1="280.72" x2="179.32" y2="243.73" xlink:href="#New_Gradient_Swatch_copy_8"/><radialGradient id="radial-gradient-9" cx="7468.42" cy="1978.86" r="15.84" gradientTransform="matrix(-0.5, -0.87, -0.5, 0.86, 4891.46, 4891.61)" gradientUnits="userSpaceOnUse"><stop offset="0" stop-color="#f5f6f8"/><stop offset="0.11" stop-color="#cfd0e0"/><stop offset="0.23" stop-color="#b0b1cd"/><stop offset="0.34" stop-color="#9a9bc0"/><stop offset="0.45" stop-color="#8d8eb8"/><stop offset="0.55" stop-color="#8889b5"/><stop offset="0.61" stop-color="#8f90b9"/><stop offset="0.71" stop-color="#a1a2c5"/><stop offset="0.82" stop-color="#c0c0d8"/><stop offset="0.94" stop-color="#eaeaf2"/><stop offset="1" stop-color="#fff"/></radialGradient><linearGradient id="New_Gradient_Swatch_copy_17" x1="59.6" y1="118.24" x2="40.93" y2="85.89" gradientTransform="translate(147.87)" gradientUnits="userSpaceOnUse"><stop offset="0.04" stop-color="#f7aa90"/><stop offset="0.23" stop-color="#f9b996"/><stop offset="0.61" stop-color="#ffe2a6"/><stop offset="0.63" stop-color="#ffe4a7"/><stop offset="0.87" stop-color="#f7aa90"/></linearGradient><linearGradient id="New_Gradient_Swatch_copy_8-4" x1="41.45" y1="115.19" x2="57.94" y2="86.75" gradientTransform="translate(207.5 -9.37) rotate(30.31)" xlink:href="#New_Gradient_Swatch_copy_8"/><radialGradient id="radial-gradient-10" cx="18003.66" cy="5734.04" r="7.88" gradientTransform="matrix(0.49, -0.32, 0.36, 0.56, -10746.88, 2643.05)" gradientUnits="userSpaceOnUse"><stop offset="0" stop-color="#972a74"/><stop offset="0.04" stop-color="#8a266a"/><stop offset="0.19" stop-color="#601b4a"/><stop offset="0.35" stop-color="#3d112f"/><stop offset="0.51" stop-color="#230a1b"/><stop offset="0.67" stop-color="#0f040c"/><stop offset="0.83" stop-color="#040103"/><stop offset="1"/></radialGradient><radialGradient id="radial-gradient-11" cx="197.34" cy="105.02" r="13.27" gradientUnits="userSpaceOnUse"><stop offset="0" stop-color="#fff"/><stop offset="1"/></radialGradient><radialGradient id="radial-gradient-12" cx="7468.42" cy="2015.01" r="15.84" gradientTransform="matrix(-0.5, -0.87, -0.5, 0.86, 4909.59, 4896.52)" xlink:href="#radial-gradient-9"/><linearGradient id="New_Gradient_Swatch_copy_17-2" x1="59.6" y1="154.16" x2="40.93" y2="121.81" xlink:href="#New_Gradient_Swatch_copy_17"/><linearGradient id="New_Gradient_Swatch_copy_8-5" x1="41.45" y1="151.11" x2="57.94" y2="122.67" gradientTransform="translate(225.63 -4.46) rotate(30.31)" xlink:href="#New_Gradient_Swatch_copy_8"/><radialGradient id="radial-gradient-13" cx="17970.49" cy="5779.49" r="7.88" xlink:href="#radial-gradient-10"/><radialGradient id="radial-gradient-14" cx="197.34" cy="140.94" r="13.27" xlink:href="#radial-gradient-11"/><radialGradient id="radial-gradient-15" cx="7468.42" cy="2065.33" r="15.84" gradientTransform="matrix(-0.5, -0.87, -0.5, 0.86, 4934.83, 4903.36)" xlink:href="#radial-gradient-9"/><linearGradient id="New_Gradient_Swatch_copy_17-3" x1="59.6" y1="204.17" x2="40.93" y2="171.83" xlink:href="#New_Gradient_Swatch_copy_17"/><linearGradient id="New_Gradient_Swatch_copy_8-6" x1="41.45" y1="201.12" x2="57.94" y2="172.68" gradientTransform="translate(250.87 2.37) rotate(30.31)" xlink:href="#New_Gradient_Swatch_copy_8"/><radialGradient id="radial-gradient-16" cx="17924.3" cy="5842.77" r="7.88" xlink:href="#radial-gradient-10"/><radialGradient id="radial-gradient-17" cx="197.34" cy="190.96" r="13.27" xlink:href="#radial-gradient-11"/><radialGradient id="radial-gradient-18" cx="7468.42" cy="2116.74" r="15.84" gradientTransform="matrix(-0.5, -0.87, -0.5, 0.86, 4960.61, 4910.34)" xlink:href="#radial-gradient-9"/><linearGradient id="New_Gradient_Swatch_copy_17-4" x1="59.6" y1="255.26" x2="40.93" y2="222.91" xlink:href="#New_Gradient_Swatch_copy_17"/><linearGradient id="New_Gradient_Swatch_copy_8-7" x1="41.45" y1="252.2" x2="57.94" y2="223.77" gradientTransform="translate(147.87)" xlink:href="#New_Gradient_Swatch_copy_8"/><radialGradient id="radial-gradient-19" cx="17877.12" cy="5907.4" r="7.88" xlink:href="#radial-gradient-10"/><radialGradient id="radial-gradient-20" cx="197.34" cy="242.04" r="13.27" xlink:href="#radial-gradient-11"/><radialGradient id="radial-gradient-21" cx="7468.42" cy="2149.94" r="15.84" gradientTransform="matrix(-0.5, -0.87, -0.5, 0.86, 4977.27, 4914.85)" xlink:href="#radial-gradient-9"/><linearGradient id="New_Gradient_Swatch_copy_17-5" x1="59.6" y1="288.26" x2="40.93" y2="255.91" xlink:href="#New_Gradient_Swatch_copy_17"/><linearGradient id="New_Gradient_Swatch_copy_8-8" x1="41.45" y1="285.2" x2="57.94" y2="256.77" gradientTransform="translate(147.87)" xlink:href="#New_Gradient_Swatch_copy_8"/><radialGradient id="radial-gradient-22" cx="17846.65" cy="5949.15" r="7.88" xlink:href="#radial-gradient-10"/><radialGradient id="radial-gradient-23" cx="197.34" cy="275.04" r="13.27" xlink:href="#radial-gradient-11"/><radialGradient id="radial-gradient-24" cx="915.61" cy="-3209.16" r="33.1" gradientTransform="translate(-1028.99 2213.25) scale(1.2 0.62)" gradientUnits="userSpaceOnUse"><stop offset="0.19" stop-color="#5f5c5d"/><stop offset="1" stop-color="#fff"/></radialGradient><linearGradient id="linear-gradient-39" x1="84.47" y1="223.65" x2="156.91" y2="223.65" gradientTransform="translate(-54.82)" gradientUnits="userSpaceOnUse"><stop offset="0" stop-color="#45108a"/><stop offset="0.14" stop-color="#4d1299"/><stop offset="0.32" stop-color="#5915b3"/><stop offset="0.61" stop-color="#25054d"/><stop offset="0.83" stop-color="#3b0c75"/><stop offset="0.99" stop-color="#2f0960"/></linearGradient><linearGradient id="linear-gradient-40" x1="29.3" y1="229.26" x2="29.31" y2="229.26" gradientTransform="matrix(1, 0, 0, 1, 0, 0)" xlink:href="#linear-gradient-39"/><linearGradient id="linear-gradient-41" x1="102.89" y1="229.26" x2="102.91" y2="229.26" gradientTransform="matrix(1, 0, 0, 1, 0, 0)" xlink:href="#linear-gradient-39"/><linearGradient id="New_Gradient_Swatch_copy_25" x1="5002.04" y1="146.77" x2="5060.36" y2="209.29" gradientTransform="matrix(-1, 0, 0, 1, 5111.37, 0)" gradientUnits="userSpaceOnUse"><stop offset="0" stop-color="#25054d"/><stop offset="1" stop-color="#45108a"/></linearGradient><linearGradient id="linear-gradient-42" x1="29.3" y1="200.87" x2="29.31" y2="200.87" gradientTransform="matrix(1, 0, 0, 1, 0, 0)" xlink:href="#linear-gradient-39"/><linearGradient id="linear-gradient-43" x1="102.89" y1="200.87" x2="102.91" y2="200.87" gradientTransform="matrix(1, 0, 0, 1, 0, 0)" xlink:href="#linear-gradient-39"/><radialGradient id="radial-gradient-25" cx="71.86" cy="199.32" r="30.39" gradientTransform="matrix(1, 0, 0, 1, 0, 0)" xlink:href="#radial-gradient-24"/><linearGradient id="linear-gradient-44" x1="85.76" y1="216.03" x2="205.53" y2="180.16" gradientTransform="matrix(1, 0, 0, 1, 0, 0)" xlink:href="#New_Gradient_Swatch_copy_25"/><linearGradient id="linear-gradient-45" x1="-39.59" y1="230.54" x2="117.89" y2="195.24" gradientTransform="matrix(1, 0, 0, 1, 0, 0)" xlink:href="#New_Gradient_Swatch_copy_25"/><linearGradient id="linear-gradient-46" x1="125.91" y1="81.52" x2="61.57" y2="204.13" gradientTransform="matrix(1, 0, 0, 1, 0, 0)" xlink:href="#New_Gradient_Swatch_copy_25"/><linearGradient id="New_Gradient_Swatch_copy_8-9" x1="36.69" y1="227.56" x2="35.2" y2="241.66" xlink:href="#New_Gradient_Swatch_copy_8"/><linearGradient id="New_Gradient_Swatch_copy_8-10" x1="39.26" y1="226.14" x2="35.88" y2="237.21" xlink:href="#New_Gradient_Swatch_copy_8"/><linearGradient id="New_Gradient_Swatch_copy_8-11" x1="36.43" y1="223.9" x2="35.49" y2="237.84" xlink:href="#New_Gradient_Swatch_copy_8"/><linearGradient id="linear-gradient-47" x1="59.12" y1="188.75" x2="37.69" y2="229.6" gradientUnits="userSpaceOnUse"><stop offset="0.04" stop-color="#f7aa90"/><stop offset="0.24" stop-color="#f9b996"/><stop offset="0.62" stop-color="#ffe2a6"/><stop offset="0.64" stop-color="#ffe4a7"/><stop offset="0.87" stop-color="#f7aa90"/></linearGradient><linearGradient id="New_Gradient_Swatch_copy_8-12" x1="77.43" y1="233.42" x2="52.02" y2="211.5" xlink:href="#New_Gradient_Swatch_copy_8"/><linearGradient id="New_Gradient_Swatch_copy_25-2" x1="68.68" y1="196.67" x2="63.68" y2="192.5" gradientTransform="matrix(1, 0, 0, 1, 0, 0)" xlink:href="#New_Gradient_Swatch_copy_25"/><linearGradient id="linear-gradient-48" x1="61.81" y1="195.82" x2="61.81" y2="195.82" gradientTransform="matrix(1, 0, 0, 1, 0, 0)" xlink:href="#linear-gradient-39"/><linearGradient id="linear-gradient-49" x1="70.39" y1="195.82" x2="70.4" y2="195.82" gradientTransform="matrix(1, 0, 0, 1, 0, 0)" xlink:href="#linear-gradient-39"/><linearGradient id="New_Gradient_Swatch_copy_8-13" x1="34.81" y1="227.05" x2="33.93" y2="240.18" xlink:href="#New_Gradient_Swatch_copy_8"/><linearGradient id="New_Gradient_Swatch_copy_8-14" x1="34.17" y1="224.52" x2="33.32" y2="237.07" xlink:href="#New_Gradient_Swatch_copy_8"/><linearGradient id="New_Gradient_Swatch_copy_8-15" x1="-18.87" y1="-174.27" x2="-19.75" y2="-161.15" gradientTransform="translate(72.47 399.35) rotate(-6.07)" xlink:href="#New_Gradient_Swatch_copy_8"/><linearGradient id="New_Gradient_Swatch_copy_8-16" x1="-19.51" y1="-176.8" x2="-20.36" y2="-164.26" gradientTransform="translate(72.47 399.35) rotate(-6.07)" xlink:href="#New_Gradient_Swatch_copy_8"/><linearGradient id="New_Gradient_Swatch_copy_8-17" x1="-29.95" y1="-492.84" x2="-30.83" y2="-479.72" gradientTransform="translate(158.23 707.2) rotate(-10.83)" xlink:href="#New_Gradient_Swatch_copy_8"/><linearGradient id="New_Gradient_Swatch_copy_8-18" x1="-30.65" y1="-494.98" x2="-31.49" y2="-482.44" gradientTransform="translate(158.23 707.2) rotate(-10.83)" xlink:href="#New_Gradient_Swatch_copy_8"/><linearGradient id="New_Gradient_Swatch_copy_8-19" x1="38.18" y1="230.03" x2="34.31" y2="225.59" xlink:href="#New_Gradient_Swatch_copy_8"/><linearGradient id="New_Gradient_Swatch_copy_8-20" x1="42.95" y1="232.84" x2="35.04" y2="226.67" xlink:href="#New_Gradient_Swatch_copy_8"/><linearGradient id="New_Gradient_Swatch_copy_8-21" x1="38.95" y1="230.88" x2="35.08" y2="226.13" xlink:href="#New_Gradient_Swatch_copy_8"/></defs><g class="cls-1"><g id="Camada_2" data-name="Camada 2"><g id="Layer_1" data-name="Layer 1"><g class="cls-2"><path class="cls-3" d="M203,307.09a16.2,16.2,0,0,1-8.07-1.95l-49-27.91-49-27.91a8.54,8.54,0,0,1-4.64-7.38c0-3.28,2-6.33,5.58-8.38l32.1-18.06a19.88,19.88,0,0,1,9.81-2.49,16.17,16.17,0,0,1,8.07,1.94l49,27.91,49,27.91a8.57,8.57,0,0,1,4.64,7.39c0,3.27-2,6.33-5.58,8.38l-32.1,18A19.86,19.86,0,0,1,203,307.09Z"/><path class="cls-4" d="M98.63,234.25l8.71-4.86c.35-.2,16.69-9.11,17-8.93l5.62-2.75c2.53-1.46,6.25-2,9.47-2a16.56,16.56,0,0,1,7.79,2l39.27,22.37,8.38,4.77,47.64,27.14a10.24,10.24,0,0,1,3.7,3.6,7.59,7.59,0,0,1,1,3.44c.09,3.15-1.85,6.14-5.33,8.15l-8.71,4.85c-.35.21-16.69,9.12-17,8.94l-5.62,2.75c-2.53,1.46-6.25,1.95-9.47,1.95a16.68,16.68,0,0,1-7.79-2L154,281.35l-8.38-4.77L98,249.44a10.19,10.19,0,0,1-3.7-3.61,7.58,7.58,0,0,1-1-3.43C93.21,239.25,95.15,236.26,98.63,234.25Z"/><path class="cls-5" d="M99.5,234.94l8.47-4.68c.71-.41,16-8.45,16.62-8.1l5.44-2.25c2.28-1.31,6.24-1.4,9.13-1.4a17.25,17.25,0,0,1,7.52,2.12l38.12,21.73,8.12,4.64,46.25,26.37a11.08,11.08,0,0,1,3.65,3.43,7.38,7.38,0,0,1,1.06,3.27c.19,3-1.65,5.93-5.07,7.91l-8.47,4.68c-.71.41-16,8.45-16.62,8.1L208.28,303c-2.28,1.31-6.24,1.4-9.14,1.4a17.2,17.2,0,0,1-7.51-2.12l-38.12-21.73-8.13-4.64L99.14,249.56a11.18,11.18,0,0,1-3.65-3.43,7.48,7.48,0,0,1-1.07-3.28C94.24,239.83,96.08,236.92,99.5,234.94Z"/><path class="cls-6" d="M100.37,235.63l8.24-4.51c1.06-.61,15.31-7.79,16.23-7.25l5.28-1.75c2-1.17,6.22-.85,8.79-.85a18,18,0,0,1,7.24,2.2l37,21.1,7.88,4.5,44.85,25.59a12.11,12.11,0,0,1,3.6,3.26,7.23,7.23,0,0,1,1.15,3.1c.28,2.9-1.46,5.74-4.82,7.68l-8.24,4.51c-1.06.61-15.31,7.79-16.23,7.26L206,302.21c-2,1.17-6.22.86-8.79.86a18.08,18.08,0,0,1-7.24-2.2l-37-21.1-7.88-4.5-44.85-25.6a12.21,12.21,0,0,1-3.6-3.25,7.42,7.42,0,0,1-1.16-3.11C95.27,240.42,97,237.57,100.37,235.63Z"/><path class="cls-7" d="M101.24,236.32l8-4.33c1.42-.82,14.62-7.13,15.85-6.42l5.11-1.24c1.78-1,6.21-.31,8.46-.31,2,0,5.55,1.48,7,2.29l35.8,20.46,7.64,4.36L232.5,276a13.61,13.61,0,0,1,3.56,3.08A7.42,7.42,0,0,1,237.3,282c.37,2.76-1.27,5.54-4.58,7.45l-8,4.33c-1.41.82-14.62,7.13-15.85,6.42l-5.11,1.24c-1.77,1-6.2.31-8.45.31-2,0-5.56-1.48-7-2.29L152.54,279l-7.63-4.36-43.45-24.83a13.56,13.56,0,0,1-3.55-3.08,7.3,7.3,0,0,1-1.25-2.94C96.3,241,97.94,238.23,101.24,236.32Z"/><path class="cls-8" d="M102.11,237l7.77-4.15c1.77-1,13.93-6.47,15.46-5.59l4.95-.73c1.52-.88,6.19.23,8.12.23,1.68,0,5.47,1.68,6.67,2.38L179.74,249l7.39,4.23,42,24.05a16.1,16.1,0,0,1,3.51,2.91,7.37,7.37,0,0,1,1.33,2.77c.46,2.64-1.08,5.35-4.33,7.22l-7.76,4.16c-1.78,1-13.93,6.46-15.47,5.58l-4.94.74c-1.52.87-6.19-.24-8.12-.24-1.68,0-5.48-1.68-6.68-2.38l-34.65-19.82L144.67,274l-42-24a15.77,15.77,0,0,1-3.5-2.9,7.51,7.51,0,0,1-1.34-2.78C97.32,241.59,98.87,238.88,102.11,237Z"/><path class="cls-9" d="M103,237.7l7.53-4c2.13-1.23,13.24-5.8,15.09-4.74l4.77-.24c1.27-.73,6.18.79,7.78.79,1.4,0,5.4,1.88,6.4,2.46l33.5,19.19,7.14,4.09,40.65,23.28a18.29,18.29,0,0,1,3.45,2.73,7.5,7.5,0,0,1,1.43,2.61c.55,2.51-.9,5.15-4.08,7l-7.53,4c-2.13,1.23-13.24,5.81-15.08,4.75l-4.78.23c-1.27.73-6.17-.78-7.78-.78-1.4,0-5.4-1.88-6.4-2.46l-33.5-19.19-7.14-4.09L103.78,250a19.49,19.49,0,0,1-3.45-2.73,7.5,7.5,0,0,1-1.43-2.61C98.35,242.17,99.8,239.54,103,237.7Z"/><path class="cls-10" d="M103.85,238.39l7.3-3.8c2.48-1.44,12.55-5.15,14.7-3.91l4.61.27c1-.59,6.16,1.33,7.44,1.33,1.12,0,5.32,2.08,6.12,2.54l32.35,18.56,6.89,3.95,39.25,22.51a24.36,24.36,0,0,1,3.4,2.56,7.69,7.69,0,0,1,1.52,2.44c.65,2.39-.71,5-3.83,6.76l-7.29,3.8c-2.49,1.44-12.56,5.15-14.71,3.91L197,299c-1,.58-6.15-1.33-7.44-1.33-1.12,0-5.32-2.08-6.12-2.55l-32.35-18.55-6.89-4-39.25-22.51a23.56,23.56,0,0,1-3.4-2.55,7.8,7.8,0,0,1-1.52-2.44C99.38,242.76,100.73,240.2,103.85,238.39Z"/><path class="cls-11" d="M104.72,239.08l7.06-3.63c2.84-1.64,11.87-4.48,14.32-3.06l4.45.77c.75-.44,6.13,1.87,7.1,1.87s5.23,2.29,5.84,2.63l31.19,17.92,6.65,3.82,37.84,21.74a21.4,21.4,0,0,1,3.36,2.38,5.11,5.11,0,0,1,1.61,2.28c.74,2.26-.52,4.75-3.58,6.52L213.5,296c-2.84,1.64-11.87,4.48-14.32,3.06l-4.45-.76c-.76.43-6.14-1.88-7.1-1.88s-5.24-2.28-5.84-2.63L150.6,275.82,144,272,106.1,250.26a21.12,21.12,0,0,1-3.35-2.38,5.11,5.11,0,0,1-1.61-2.28C100.4,243.35,101.66,240.85,104.72,239.08Z"/><path class="cls-12" d="M105.59,239.77l6.82-3.45c3.2-1.85,11.18-3.82,13.94-2.23l4.28,1.27c.51-.29,6.12,2.43,6.77,2.43s5.15,2.48,5.55,2.71l30,17.28,6.41,3.69,36.44,21a29.71,29.71,0,0,1,3.31,2.2,5,5,0,0,1,1.7,2.11c.84,2.13-.33,4.56-3.33,6.29l-6.83,3.46c-3.19,1.84-11.17,3.82-13.94,2.22l-4.27-1.27c-.51.29-6.13-2.42-6.77-2.42s-5.16-2.48-5.56-2.72l-30-17.28-6.4-3.68-36.44-21a31.17,31.17,0,0,1-3.31-2.2,5,5,0,0,1-1.7-2.12C101.42,243.93,102.59,241.51,105.59,239.77Z"/><path class="cls-13" d="M106.46,240.47l6.59-3.29c3.54-2.05,10.49-3.16,13.56-1.38l4.11,1.77c.25-.15,6.1,3,6.43,3s5.07,2.68,5.27,2.8L171.31,260l6.16,3.55,35,20.19c.15.09,3.19,1.89,3.26,2a4.8,4.8,0,0,1,1.78,1.95c.94,2-.13,4.36-3.07,6.05l-6.59,3.29c-3.55,2-10.49,3.16-13.56,1.38l-4.11-1.77c-.25.14-6.11-3-6.43-3s-5.08-2.69-5.28-2.8l-28.88-16.65-6.16-3.55-35-20.19c-.16-.09-3.19-1.89-3.26-2a4.89,4.89,0,0,1-1.79-1.95C102.44,244.52,103.52,242.16,106.46,240.47Z"/><path d="M191.9,298.14l-42.76-24.69-42.76-24.69c-3.38-1.95-2.95-5.35,1-7.6l6.35-3.11c3.9-2.25,9.8-2.5,13.18-.55l42.76,24.69,42.77,24.69c3.37,1.95,3,5.35-.95,7.61l-6.36,3.11C201.18,299.85,195.28,300.09,191.9,298.14Z"/></g><path class="cls-14" d="M188.31,292,111.6,247.73c-8.66-5-15.67-18.4-15.67-29.94V13.49c0-5.87-4.83-7.16-1.9-9.27.11-.08,6.84-3.14,7-3.19,3.15-1.21,6.51-1.74,10.6.62l76.71,44.29C197,50.93,204,64.34,204,75.87v204.3c0,6.13-2,10.5-5.14,12.5-.18.12-8.3,4-8.51,4.05C187.53,297.65,192.09,294.2,188.31,292Z"/><path class="cls-15" d="M187.6,46.17,110.89,1.88c-4.09-2.36,72.47,45.71,72.47,45.71C192,52.58,199,66,199,77.52c0,0,4.24,209,4.24,202.89V76.11C203.27,64.57,196.26,51.17,187.6,46.17Z"/><path class="cls-16" d="M182.35,294.74l-76.71-44.29C97,245.46,90,232.05,90,220.51V16.21C90,4.68,97-.63,105.64,4.37l76.71,44.29C191,53.66,198,67.06,198,78.6V282.9C198,294.44,191,299.74,182.35,294.74Z"/><path class="cls-17" d="M181,295.48l-76.72-44.29c-8.65-5-15.67-18.4-15.67-29.94V17c0-11.54,7-16.84,15.67-11.84L181,49.4c8.65,5,15.66,18.4,15.66,29.94v204.3C196.65,295.17,189.64,300.48,181,295.48Z"/><path class="cls-18" d="M90.74,222.61V18.06C90.74,8,96.89,3.3,104.48,7.68l76.3,44.05c7.59,4.38,13.74,16.13,13.74,26.25V282.53c0,10.11-6.15,14.76-13.74,10.38l-76.3-44.06C96.89,244.48,90.74,232.73,90.74,222.61Z"/><path class="cls-19" d="M93.79,223.86V20.34c0-8.47,5.15-12.36,11.5-8.69L180,54.76c6.35,3.67,11.5,13.51,11.5,22V280.25c0,8.46-5.15,12.35-11.5,8.69l-74.68-43.12C98.94,242.16,93.79,232.32,93.79,223.86Z"/><path class="cls-20" d="M106.15,13.9c-6-3.46-10.83-.69-10.83,6.18v205.8c0,6.87,4.85,15.24,10.83,18.69l72.95,42.12c6,3.45,10.84.69,10.84-6.18V74.71c0-6.87-4.85-15.24-10.84-18.69Z"/><path class="cls-21" d="M198.71,126.61v-13.8a5.74,5.74,0,0,1,2.4-4.57h0c1.32-.76,2.39.05,2.39,1.81v13.79a5.76,5.76,0,0,1-2.39,4.58h0C199.79,129.18,198.71,128.37,198.71,126.61Z"/><path class="cls-22" d="M200.16,128.19c-.69,0-.93-.86-.93-1.58v-13.8a5.25,5.25,0,0,1,2.14-4.12,1.42,1.42,0,0,1,.69-.22c.68,0,.93.85.93,1.58v13.79a5.26,5.26,0,0,1-2.14,4.13A1.49,1.49,0,0,1,200.16,128.19Z"/><path class="cls-23" d="M199.94,127V113.17a5.28,5.28,0,0,1,2.13-4.13,1.49,1.49,0,0,1,.62-.2.74.74,0,0,0-.63-.37,1.42,1.42,0,0,0-.69.22,5.25,5.25,0,0,0-2.14,4.12v13.8c0,.72.24,1.58.93,1.58l.08,0A2.27,2.27,0,0,1,199.94,127Z"/><g class="cls-24"><path class="cls-25" d="M106.33,51.42c-6.3-3.64-11.41-.72-11.41,6.51V222.29c0,7.23,5.11,16.05,11.41,19.68l76.82,44.36c6.3,3.63,11.41.72,11.41-6.51V115.46c0-7.24-5.11-16-11.41-19.69Z"/><path class="cls-26" d="M106.34,52C100.07,48.34,95,51.24,95,58.43V222c0,7.19,5.08,16,11.35,19.58l76.45,44.14c6.27,3.62,11.35.72,11.35-6.48V115.68c0-7.2-5.08-16-11.35-19.58Z"/><path class="cls-27" d="M106.35,52.5c-6.24-3.61-11.29-.72-11.29,6.44V221.7c0,7.16,5,15.89,11.29,19.49l76.08,43.92c6.24,3.6,11.3.72,11.3-6.44V115.91c0-7.16-5.06-15.89-11.3-19.49Z"/><path class="cls-28" d="M106.37,53c-6.21-3.58-11.25-.71-11.25,6.42v162c0,7.12,5,15.8,11.25,19.39l75.69,43.7c6.21,3.59,11.25.72,11.25-6.41v-162c0-7.12-5-15.81-11.25-19.39Z"/><path class="cls-29" d="M106.38,53.57C100.2,50,95.19,52.86,95.19,60V221.11c0,7.09,5,15.73,11.19,19.3l75.32,43.48c6.18,3.57,11.19.72,11.19-6.37V116.36c0-7.09-5-15.73-11.19-19.3Z"/><path class="cls-30" d="M106.39,54.11c-6.15-3.55-11.13-.71-11.13,6.35V220.81c0,7.06,5,15.66,11.13,19.21l75,43.27c6.15,3.55,11.13.7,11.13-6.35V116.58c0-7-5-15.65-11.13-19.2Z"/><path class="cls-31" d="M106.4,54.65c-6.12-3.53-11.07-.71-11.07,6.31V220.52c0,7,5,15.57,11.07,19.1L181,282.68c6.12,3.53,11.08.7,11.08-6.32V116.81c0-7-5-15.58-11.08-19.11Z"/><path class="cls-32" d="M106.41,55.19c-6.08-3.52-11-.71-11,6.28V220.22c0,7,4.94,15.5,11,19l74.2,42.84c6.09,3.51,11,.7,11-6.28V117c0-7-4.93-15.49-11-19Z"/><path class="cls-33" d="M106.43,55.72c-6.06-3.49-11-.69-11,6.26v158c0,6.95,4.91,15.41,11,18.91l73.82,42.62c6.05,3.5,11,.7,11-6.25V117.26c0-7-4.91-15.42-11-18.92Z"/><path class="cls-34" d="M106.44,56.26c-6-3.48-10.91-.69-10.91,6.22V219.63c0,6.91,4.88,15.34,10.91,18.82l73.45,42.4c6,3.48,10.9.7,10.9-6.22V117.48c0-6.91-4.88-15.34-10.9-18.81Z"/><path class="cls-35" d="M106.45,56.8c-6-3.46-10.86-.69-10.86,6.19V219.33c0,6.88,4.86,15.27,10.86,18.73l73.07,42.19c6,3.46,10.86.69,10.86-6.19V117.71c0-6.88-4.86-15.26-10.86-18.72Z"/><path class="cls-36" d="M106.46,57.34c-6-3.45-10.8-.69-10.8,6.15V219c0,6.84,4.84,15.18,10.8,18.62l72.7,42c6,3.44,10.8.68,10.8-6.16V117.93c0-6.84-4.84-15.18-10.8-18.62Z"/></g><path class="cls-37" d="M106.15,50.07c-6-3.46-10.83-.69-10.83,6.17V212.33c0,6.86,4.85,15.23,10.83,18.69l72.95,42.11c6,3.46,10.84.69,10.84-6.17V110.87c0-6.86-4.85-15.23-10.84-18.69Z"/><path class="cls-38" d="M179.1,92.18,106.15,50.07c-6-3.46-10.83-.69-10.83,6.17v1c0-6.86,4.85-9.63,10.83-6.18L179.1,93.23c6,3.46,10.84,11.82,10.84,18.69v-1C189.94,104,185.09,95.64,179.1,92.18Z"/><path class="cls-39" d="M173.3,65.81l9.47,5.46c.36.21.65,0,.65-.37a1.42,1.42,0,0,0-.65-1.12l-9.47-5.47c-.36-.21-.66,0-.66.37A1.46,1.46,0,0,0,173.3,65.81Zm9.47,7.34-9.47-5.47c-.36-.21-.66,0-.66.37a1.45,1.45,0,0,0,.66,1.13l9.47,5.47c.36.21.65,0,.65-.37A1.44,1.44,0,0,0,182.77,73.15Zm0,3.37-9.47-5.47c-.36-.21-.66,0-.66.38a1.45,1.45,0,0,0,.66,1.12L182.77,78c.36.21.65,0,.65-.37A1.45,1.45,0,0,0,182.77,76.52Z"/><path class="cls-39" d="M115.26,33.09c0,1-.71,1.4-1.58.9a3.49,3.49,0,0,1-1.58-2.72c0-1,.71-1.41,1.58-.9A3.48,3.48,0,0,1,115.26,33.09Z"/><path class="cls-39" d="M110.5,30.32c0,1-.71,1.41-1.58.9a3.48,3.48,0,0,1-1.58-2.72c0-1,.71-1.4,1.58-.9A3.49,3.49,0,0,1,110.5,30.32Z"/><path class="cls-39" d="M105.74,27.56c0,1-.71,1.4-1.58.9a3.49,3.49,0,0,1-1.58-2.72c0-1,.71-1.41,1.58-.9A3.48,3.48,0,0,1,105.74,27.56Z"/><path class="cls-39" d="M142.72,44.3c-1-.57-1.78-.12-1.78,1a3.92,3.92,0,0,0,1.78,3.08c1,.57,1.78.11,1.78-1A3.89,3.89,0,0,0,142.72,44.3Zm-12.59,7.17c-1-.57-1.78-.11-1.78,1a3.92,3.92,0,0,0,1.78,3.08c1,.57,1.78.11,1.78-1A3.92,3.92,0,0,0,130.13,51.47ZM155.31,66c-1-.57-1.78-.11-1.78,1a3.92,3.92,0,0,0,1.78,3.08c1,.57,1.78.11,1.78-1A3.92,3.92,0,0,0,155.31,66Zm.17-1.38c1.78-.15,2.39-2.41,1.36-5s-3.3-4.65-5.08-4.5-2.38,2.41-1.36,5S153.7,64.78,155.48,64.63Zm-4.92-10.8c.49-.7.2-2.12-.65-3.18S148,49.3,147.47,50s-.2,2.11.65,3.17S150.07,54.52,150.56,53.83Zm-15-11.47c-.85.07-1.14,1.15-.65,2.42s1.58,2.22,2.44,2.15,1.14-1.15.65-2.42S136.39,42.28,135.53,42.36Zm-5.26,3c-.49.69-.2,2.11.65,3.17s2,1.35,2.44.66.2-2.12-.65-3.18S130.76,44.66,130.27,45.36Z"/><g class="cls-24"><path class="cls-40" d="M106.33,124.78c-6.3-3.64-11.41-.73-11.41,6.5v92.6c0,7.23,5.11,16,11.41,19.68l76.82,44.35c6.3,3.64,6.44-2.05,6.44-9.28V186c0-7.23-.14-13.27-6.44-16.91Z"/><path class="cls-41" d="M106.34,125.75C100.07,122.13,95,125,95,132.23V224c0,7.19,5.08,16,11.35,19.58l76.45,44.14c6.27,3.62,6.84-1.8,6.84-9V187c0-7.19-.57-13.44-6.84-17.06Z"/><path class="cls-42" d="M106.35,126.73c-6.24-3.6-11.29-.72-11.29,6.44v91c0,7.16,5,15.89,11.29,19.49l76.08,43.92c6.24,3.6,7.23-1.55,7.23-8.71v-91c0-7.16-1-13.62-7.23-17.22Z"/><path class="cls-43" d="M106.37,127.71c-6.21-3.59-11.25-.72-11.25,6.41V224.3c0,7.13,5,15.81,11.25,19.4l75.69,43.7c6.21,3.58,7.63-1.3,7.63-8.43V188.78c0-7.12-1.42-13.79-7.63-17.37Z"/><path class="cls-44" d="M106.38,128.68c-6.18-3.57-11.19-.71-11.19,6.38v89.38c0,7.09,5,15.73,11.19,19.3l75.32,43.49c6.18,3.57,8-1.06,8-8.15V189.7c0-7.09-1.85-14-8-17.53Z"/><path class="cls-45" d="M106.39,129.66c-6.15-3.55-11.13-.71-11.13,6.34v88.59c0,7,5,15.65,11.13,19.2l75,43.27c6.15,3.55,8.42-.81,8.42-7.86V190.62c0-7.06-2.27-14.14-8.42-17.69Z"/><path class="cls-46" d="M106.4,130.63c-6.12-3.53-11.07-.7-11.07,6.32v87.78c0,7,5,15.57,11.07,19.1L181,286.89c6.12,3.53,8.82-.56,8.82-7.58V191.53c0-7-2.7-14.31-8.82-17.84Z"/><path class="cls-47" d="M106.41,131.61c-6.08-3.52-11-.7-11,6.28v87c0,7,4.94,15.5,11,19l74.2,42.84c6.09,3.51,9.22-.31,9.22-7.29v-87c0-7-3.13-14.49-9.22-18Z"/><path class="cls-48" d="M106.43,132.58c-6.06-3.49-11-.69-11,6.26V225c0,7,4.91,15.42,11,18.92l73.82,42.62c6.05,3.5,9.61-.06,9.61-7V193.36c0-7-3.56-14.66-9.61-18.15Z"/><path class="cls-49" d="M106.44,133.56c-6-3.48-10.91-.69-10.91,6.22v85.38c0,6.91,4.88,15.33,10.91,18.81l73.45,42.41c6,3.48,10,.19,10-6.73V194.28c0-6.92-4-14.84-10-18.31Z"/><path class="cls-50" d="M106.45,134.54c-6-3.47-10.86-.69-10.86,6.18V225.3c0,6.88,4.86,15.26,10.86,18.72l73.07,42.19c6,3.46,10.4.44,10.4-6.44V195.19c0-6.88-4.4-15-10.4-18.47Z"/><path class="cls-51" d="M106.46,135.51c-6-3.44-10.8-.69-10.8,6.16v83.77c0,6.84,4.84,15.18,10.8,18.63l72.7,42c6,3.44,10.8.69,10.8-6.16V196.11c0-6.84-4.84-15.18-10.8-18.63Z"/></g><path class="cls-52" d="M106.15,86.2c-6-3.45-10.83-.69-10.83,6.18V223.71c0,6.87,4.85,15.24,10.83,18.69l72.95,42.12c6,3.46,10.84.69,10.84-6.18V147c0-6.87-4.85-15.23-10.84-18.69Z"/><path class="cls-53" d="M179.1,128.32,106.15,86.2c-6-3.45-10.83-.69-10.83,6.18v1.05c0-6.87,4.85-9.63,10.83-6.18l72.95,42.12c6,3.45,10.84,11.82,10.84,18.69V147C189.94,140.14,185.09,131.78,179.1,128.32Z"/><path class="cls-54" d="M106.15,135.54c-6-3.46-10.83-.69-10.83,6.17v81.17c0,6.87,4.85,15.24,10.83,18.69l72.95,42.12c6,3.45,10.84.69,10.84-6.18V196.34c0-6.86-4.85-15.23-10.84-18.69Z"/><path class="cls-55" d="M179.1,177.65l-72.95-42.11c-6-3.46-10.83-.69-10.83,6.17v1c0-6.87,4.85-9.63,10.83-6.18L179.1,178.7c6,3.46,10.84,11.82,10.84,18.69v-1C189.94,189.48,185.09,181.11,179.1,177.65Z"/><path class="cls-56" d="M106.15,190.59c-6-3.45-10.83-.68-10.83,6.18v29.11c0,6.87,4.85,15.24,10.83,18.69l72.95,42.12c6,3.45,10.84.69,10.84-6.18V251.4c0-6.87-4.85-15.23-10.84-18.69Z"/><path class="cls-57" d="M179.1,232.71l-72.95-42.12c-6-3.45-10.83-.68-10.83,6.18v1c0-6.87,4.85-9.63,10.83-6.18l72.95,42.12c6,3.46,10.84,11.82,10.84,18.69v-1C189.94,244.53,185.09,236.17,179.1,232.71Z"/><path class="cls-58" d="M106.15,216.82c-6-3.45-10.83-.69-10.83,6.18v2.88c0,6.87,4.85,15.24,10.83,18.69l72.95,42.12c6,3.45,10.84.69,10.84-6.18v-2.88c0-6.87-4.85-15.24-10.84-18.69Z"/><path class="cls-59" d="M179.1,258.94l-72.95-42.12c-6-3.45-10.83-.69-10.83,6.18v1.05c0-6.87,4.85-9.64,10.83-6.18L179.1,260c6,3.45,10.84,11.82,10.84,18.69v-1.05C189.94,270.76,185.09,262.39,179.1,258.94Z"/><g class="cls-60"><path class="cls-61" d="M112.6,68.35,129.31,78c.29.16.38-.22.13-.52L121,67.61l-8.48.08C112.22,67.69,112.31,68.18,112.6,68.35Z"/><path class="cls-61" d="M128.18,78.69c.26.15.47,0,.47-.27V78l-15.39-8.89v.47a1,1,0,0,0,.47.82l.63.37V80l-.47-.28c-.26-.15-.48,0-.48.28v.73L128.5,89.4v-.74a1.06,1.06,0,0,0-.48-.82l-.47-.27V78.33Zm-3,7.54-8.55-4.93V72.05L125.23,77Z"/><path class="cls-61" d="M129.14,90.08l-16.37-9.45c-.26-.15-.48,0-.48.27v.74l17.33,10V90.9A1.06,1.06,0,0,0,129.14,90.08Z"/></g><g class="cls-62"><path class="cls-61" d="M134.63,81.18l16.71,9.65c.29.16.38-.22.13-.52L143,80.44l-8.48.08C134.25,80.52,134.34,81,134.63,81.18Z"/><path class="cls-61" d="M150.21,91.52c.26.15.47,0,.47-.27v-.46L135.29,81.9v.46a1,1,0,0,0,.47.82l.64.37v9.24l-.48-.27c-.26-.15-.47,0-.47.27v.73l15.08,8.71v-.74a1,1,0,0,0-.48-.81l-.47-.28V91.16Zm-3,7.54-8.55-4.93V84.89l8.55,4.93Z"/><path class="cls-61" d="M151.17,102.91,134.8,93.46c-.26-.15-.47,0-.47.27v.74l17.32,10v-.74A1.06,1.06,0,0,0,151.17,102.91Z"/></g><g class="cls-60"><path class="cls-61" d="M156.66,94.13l16.72,9.65c.28.17.37-.22.12-.51L165,93.4l-8.48.07C156.28,93.48,156.38,94,156.66,94.13Z"/><path class="cls-61" d="M172.24,104.48c.26.15.48,0,.48-.27v-.47l-15.4-8.89v.47a1,1,0,0,0,.48.82l.63.36v9.24l-.48-.27c-.26-.15-.47,0-.47.27v.74l15.08,8.7v-.73a1,1,0,0,0-.48-.82l-.47-.28v-9.24Zm-3,7.54-8.54-4.94V97.84l8.54,4.93Z"/><path class="cls-61" d="M173.2,115.87l-16.37-9.46c-.26-.15-.47,0-.47.27v.74l17.32,10v-.74A1,1,0,0,0,173.2,115.87Z"/></g><path class="cls-63" d="M120.09,75l1.64,1,1.25,8-1.21-.7-.22-1.57v0l-1.37-.79-.22,1.3-1.12-.65Zm1.32,5.64-.54-3.92h0l-.53,3.3Z"/><path class="cls-64" d="M141.55,87.47l1.83,1a4,4,0,0,1,1.36,1.2,2.67,2.67,0,0,1,.43,1.51v.29a1.4,1.4,0,0,1-.19.81.57.57,0,0,1-.59.17v0a2.63,2.63,0,0,1,.9,2v.63c0,.56-.16.9-.47,1s-.76,0-1.37-.35l-1.9-1.09Zm1.68,3.93c.25.14.43.19.55.14s.18-.21.18-.49v-.4a1.29,1.29,0,0,0-.15-.66,1.14,1.14,0,0,0-.47-.45l-.58-.34v1.93Zm.22,3.41c.22.13.37.16.48.11s.15-.2.15-.46v-.64a1.55,1.55,0,0,0-.18-.8,1.69,1.69,0,0,0-.6-.54l-.54-.31v2.24Z"/><path class="cls-63" d="M163.85,107.67a2.86,2.86,0,0,1-.46-1.58v-3.92c0-.57.15-.92.46-1.06s.74,0,1.32.3a3.69,3.69,0,0,1,1.33,1.23,3,3,0,0,1,.45,1.59V105l-1.14-.66v-.85a1.11,1.11,0,0,0-.6-1c-.41-.24-.61-.13-.61.33v4.07a1.1,1.1,0,0,0,.61,1c.4.24.6.13.6-.31v-1.12l1.14.66v1c0,.57-.15.93-.45,1.06s-.75,0-1.33-.29A3.68,3.68,0,0,1,163.85,107.67Z"/><path class="cls-65" d="M178.9,108.25v9.9l5.34-1.86Zm-72-32v-9.9l-5.35,1.86Z"/><path class="cls-66" d="M170.9,140.93l-55.05-31.55a4.22,4.22,0,0,1-1.76-3.36v-3.5c0-1.3.79-1.89,1.76-1.33l55.05,31.55a4.21,4.21,0,0,1,1.76,3.36v3.5C172.66,140.89,171.87,141.49,170.9,140.93Z"/><path class="cls-66" d="M170.9,153.4l-55.05-31.56a4.2,4.2,0,0,1-1.76-3.35V115c0-1.29.79-1.89,1.76-1.33l55.05,31.56a4.2,4.2,0,0,1,1.76,3.35v3.51C172.66,153.36,171.87,154,170.9,153.4Z"/><path class="cls-66" d="M170.9,166.06l-55.05-31.55a4.21,4.21,0,0,1-1.76-3.36v-3.5c0-1.3.79-1.89,1.76-1.33l55.05,31.55a4.22,4.22,0,0,1,1.76,3.36v3.5C172.66,166,171.87,166.62,170.9,166.06Z"/><path class="cls-67" d="M113.19,154.27c2.79,1.61,5,2.35,5,1.65s-2.25-2.56-5-4.17-5-2.34-5-1.65S110.4,152.67,113.19,154.27Zm0,.85c-2.79-1.61-5-3.48-5-4.17V153h0c0,.69,2.25,2.56,5,4.17s5,2.35,5,1.65h0v-2.09C118.23,157.47,116,156.73,113.19,155.12Zm0,2.86c-2.79-1.6-5-3.47-5-4.17v2.09h0c0,.7,2.25,2.57,5,4.17s5,2.35,5,1.66h0v-2.08C118.23,160.33,116,159.59,113.19,158Zm0,2.87c-2.79-1.61-5-3.47-5-4.17v2.09h0c0,.7,2.25,2.56,5,4.17s5,2.35,5,1.65h0V162.5C118.23,163.2,116,162.46,113.19,160.85Zm0,2.86c-2.79-1.61-5-3.48-5-4.18v2.09h0c0,.7,2.25,2.57,5,4.18s5,2.34,5,1.65h0v-2.08C118.23,166.05,116,165.31,113.19,163.71Z"/><path class="cls-67" d="M118.2,179.11l-10-5.79c-.61-.35-1.11-.07-1.11.64v6.78a2.46,2.46,0,0,0,1.11,1.92l10,5.78c.61.36,1.11.07,1.11-.63V181A2.44,2.44,0,0,0,118.2,179.11Zm.58,9.11-4-6.06-1.64.87-1.64-2.77-4,1.5s3.23-2,3.56-2.16l-3.65-6.16,5.68,8.53s5.69-2,5.69-1.95L115.22,182C115.59,182.59,118.79,188.22,118.78,188.22Z"/><path class="cls-67" d="M155.26,203.64l-4.12-5.72c-.37-.51-.89-.5-.89,0v6.67c0,.52.52,1.12.89,1l4.12-.95C155.58,204.62,155.58,204.08,155.26,203.64Zm-2.94-8.19c-3.37-1.95-6.12-.39-6.12,3.48a13.51,13.51,0,0,0,6.12,10.56c3.37,1.95,6.12.38,6.12-3.49A13.5,13.5,0,0,0,152.32,195.45Zm0,13.16a11.81,11.81,0,0,1-5.35-9.23c0-3.39,2.4-4.76,5.35-3.06a11.83,11.83,0,0,1,5.35,9.24C157.67,209,155.27,210.31,152.32,208.61Z"/><path class="cls-67" d="M165.25,213.47l12.24,7.07V210Zm10.08,3.34-3.59-2.07,3.59-1Zm.71,2c0-.14.1-.2.23-.13a.54.54,0,0,1,.23.4v.58l-.46-.27Zm-1.15-.66a.14.14,0,0,1,.23-.13.51.51,0,0,1,.23.4V219l-.46-.27Zm-1.14-.66c0-.14.1-.2.23-.13a.51.51,0,0,1,.23.4v.58l-.46-.27Zm-1.14-.66c0-.14.1-.2.23-.13a.53.53,0,0,1,.22.4v.58l-.45-.27Zm-1.15-.66c0-.14.1-.2.23-.13a.51.51,0,0,1,.23.4V217l-.46-.27Zm-1.14-.66c0-.14.1-.2.23-.13a.52.52,0,0,1,.23.4v.58l-.46-.27Zm-1.13-.65c0-.15.1-.2.23-.13a.52.52,0,0,1,.23.39v.58l-.46-.26Zm-1.15-.08v-.58c0-.15.11-.2.23-.13a.49.49,0,0,1,.23.39v.58Z"/><path class="cls-67" d="M138.12,166.64l-.52-.3v.87c0,.73-.52,1-1.15.66a2.52,2.52,0,0,1-1.15-2V165l-4.59-2.65v.88c0,.73-.51,1-1.15.65a2.52,2.52,0,0,1-1.14-2V161l-.53-.31c-.55-.32-1-.06-1,.58V170a2.21,2.21,0,0,0,1,1.73l10.23,5.91c.55.32,1,.06,1-.57v-8.67A2.23,2.23,0,0,0,138.12,166.64Zm.24,10.23-10.71-6.18v-7.46l10.71,6.18Zm-5.74-10.33-1.91-1.11v1.32l1.91,1.1Zm2.68,1.54-1.91-1.1v1.32l1.91,1.1Zm2.68,1.55-1.91-1.11v1.32l1.91,1.1Zm-8-2.88L128,165.64V167l1.92,1.1Zm2.67,1.54-1.91-1.1v1.31l1.91,1.11Zm2.68,1.55-1.91-1.11v1.32l1.91,1.1Zm2.68,1.54-1.91-1.1v1.32l1.91,1.1Zm-8-2.88L128,167.4v1.31l1.92,1.11Zm2.67,1.55-1.91-1.11v1.32l1.91,1.1Zm2.68,1.54-1.91-1.1v1.32l1.91,1.1Zm2.68,1.55L136.07,172v1.32l1.91,1.11Zm-8-2.88L128,169.15v1.32l1.92,1.1Zm2.67,1.54-1.91-1.1V172l1.91,1.1Zm-3.06-8.35c.43.25.77.05.77-.43v-1.76a1.69,1.69,0,0,0-.77-1.32c-.42-.24-.76,0-.76.44v1.76A1.67,1.67,0,0,0,129.56,163.45Zm6.89,4c.42.24.76,0,.76-.44v-1.75a1.67,1.67,0,0,0-.76-1.32c-.42-.25-.77,0-.77.43v1.76A1.72,1.72,0,0,0,136.45,167.43Z"/><path class="cls-67" d="M156.72,178.26l-1.53-.88v-1.32l-6.46-3.73c-.44-.26-.81-.05-.81.47v10l.07,0a1.13,1.13,0,0,0-.07.39,2.53,2.53,0,0,0,1.15,2l1.15.66v1.32l1.14-.65,1.15,2v-1.32l4.21,2.43Zm-7.65,6.11a.83.83,0,0,1-.38-.65c0-.25.17-.34.38-.22l.76.44.39.22V185Zm6.88,4-3.44-2v-.88l2.68,1.55v-8.78l.76.44Z"/><path class="cls-67" d="M171.75,186.27v-.4a1.74,1.74,0,0,0-.8-1.37l-3.76-2.18c-.44-.25-.79,0-.79.46v.84l-.35-.2c-.44-.26-.8,0-.8.45v7.37a1.78,1.78,0,0,0,.81,1.4l10.28,5.94c.63.36,1.15.07,1.15-.66v-8.34Zm5,11.21c0,.24-.17.34-.38.22A.84.84,0,0,1,176,197v-6.58l-5.74-3.32v-.4a1.75,1.75,0,0,0-.8-1.37l-2.26-1.31v-.84s0,0,0,0l3.76,2.17a.07.07,0,0,1,0,.06v1.28l.77.44,5,2.87Z"/><path class="cls-67" d="M136.91,191l-2.84-4.89a4.74,4.74,0,0,0-1.65-1.75l-4-2.31v14l9.18,5.29v-8.1A4.72,4.72,0,0,0,136.91,191Zm-3.14-4.18,2.36,4.07-2.36-1.36Zm3.06,13.25-7.65-4.41V183.37l3.35,1.93a1.09,1.09,0,0,1,.48.83V190l3.34,1.93a1,1,0,0,1,.48.82ZM130,191.71l6.12,3.54v-.88L130,190.83Zm0-1.75,6.12,3.53v-.88L130,189.08Zm0,3.51,6.12,3.53v-.88L130,192.59Z"/><path class="cls-66" d="M121.09,217.44V214l3,1.71c.2.11.35,0,.35-.2v-2.29a.75.75,0,0,0-.35-.6l-3-1.72v-3.4a.75.75,0,0,0-.35-.61l-2-1.15c-.2-.11-.35,0-.35.2v3.41l-2.8-1.62c-.2-.11-.35,0-.35.2v2.29a.75.75,0,0,0,.35.6l2.8,1.62v3.41a.75.75,0,0,0,.35.6l2,1.16C120.94,217.75,121.09,217.66,121.09,217.44Z"/><path class="cls-66" d="M132.84,224.19v-3.41l3,1.71c.2.11.35,0,.35-.2V220a.75.75,0,0,0-.35-.6l-3-1.72v-3.4a.75.75,0,0,0-.35-.61l-2-1.15c-.2-.11-.35,0-.35.2v3.41l-2.8-1.62c-.2-.11-.35,0-.35.2V217a.75.75,0,0,0,.35.6l2.8,1.62v3.41a.75.75,0,0,0,.35.6l2,1.16C132.69,224.5,132.84,224.41,132.84,224.19Z"/><path class="cls-66" d="M144.72,230.94v-3.41l3,1.71c.19.11.35,0,.35-.2v-2.29a.77.77,0,0,0-.35-.6l-3-1.72V221a.78.78,0,0,0-.35-.61l-2-1.15c-.19-.11-.35,0-.35.2v3.41l-2.8-1.62c-.19-.11-.35,0-.35.2v2.29a.77.77,0,0,0,.35.6L142,226v3.41a.77.77,0,0,0,.35.6l2,1.16C144.56,231.25,144.72,231.16,144.72,230.94Z"/><path class="cls-66" d="M156.34,237.56v-3.41l3,1.72c.2.11.35,0,.35-.2v-2.29a.78.78,0,0,0-.35-.61l-3-1.71v-3.41a.75.75,0,0,0-.35-.6l-2-1.16c-.2-.11-.35,0-.35.2v3.41l-2.8-1.61c-.2-.12-.35,0-.35.19v2.3a.75.75,0,0,0,.35.6l2.8,1.62V236a.75.75,0,0,0,.35.61l2,1.15C156.19,237.87,156.34,237.78,156.34,237.56Z"/><path class="cls-66" d="M168.22,244.31V240.9l3,1.72c.19.11.35,0,.35-.2v-2.29a.81.81,0,0,0-.35-.61l-3-1.71V234.4a.77.77,0,0,0-.35-.6l-2-1.16c-.19-.11-.35,0-.35.2v3.41l-2.8-1.61c-.19-.12-.35,0-.35.19v2.3a.77.77,0,0,0,.35.6l2.8,1.62v3.4a.78.78,0,0,0,.35.61l2,1.15C168.06,244.62,168.22,244.53,168.22,244.31Z"/><path class="cls-67" d="M144.1,256.58c.05-.63.69-.62,1.17,0,.61.82,1.38.56,1.12-.38-.2-.73.24-1.11.81-.69.73.53,1.16-.24.63-1.13-.42-.69-.26-1.4.29-1.29s.69-1,0-1.65-.71-1.4-.29-1.62.1-1.54-.63-1.84a1.53,1.53,0,0,1-.81-1.64c.26-.63-.51-1.79-1.12-1.68s-1.12-.63-1.17-1.32c-.07-.87-1-1.68-1.4-1.17s-1,0-1.3-.75c-.38-.95-1.34-1.25-1.41-.45-.05.63-.69.61-1.17,0-.61-.81-1.38-.55-1.12.38.2.74-.24,1.12-.81.7-.73-.53-1.16.24-.62,1.13.41.69.25,1.4-.29,1.28-.7-.14-.7,1,0,1.66.54.51.7,1.4.29,1.62s-.11,1.54.62,1.84a1.53,1.53,0,0,1,.81,1.64c-.26.63.51,1.79,1.12,1.67s1.12.64,1.17,1.33c.07.87,1,1.68,1.41,1.17s1,0,1.3.75C143.07,257.07,144,257.38,144.1,256.58Zm-2-3.63a8,8,0,0,1-3.63-6.26c0-2.3,1.62-3.23,3.63-2.07a8,8,0,0,1,3.63,6.26C145.68,253.18,144.05,254.11,142.05,253Zm-2.6,1a.46.46,0,0,0-.21-.34.17.17,0,0,0-.11,0,1,1,0,0,1-.72-.16,2.83,2.83,0,0,1-1.08-1.28,2,2,0,0,1-.16-1.39L135,255l3.3.46,1.25,4.51,1.88-3.72a1.06,1.06,0,0,1-.72-.15A2.91,2.91,0,0,1,139.45,254Zm7.47,2.44a1.3,1.3,0,0,1-.16,1.2.82.82,0,0,1-1.07,0A2.26,2.26,0,0,1,145,257a.35.35,0,0,0-.12-.1c-.07-.05-.19-.06-.21.1-.06.74-.62,1-1.3.61a2.42,2.42,0,0,1-.72-.68l1.88,5.9,1.26-3.06,3.29,3.34Z"/><path class="cls-68" d="M82.88,304.25l53.73-30.77c2.55-1.47,2.59-2.24-.36-3.94l-74.86-45.6c-3-1.7-3.64-1.55-6.2-.07L1.73,254.43c-2.56,1.47-2.24,2.89.71,4.59L76.23,304.1C79.19,305.8,80.33,305.73,82.88,304.25Z"/><polygon class="cls-69" points="132.5 272.31 110.75 259.53 3.31 256.85 79.58 303.01 80.83 302.36 132.5 272.31"/><path class="cls-70" d="M81.46,301.47,130.53,273,60.16,230.43a2.27,2.27,0,0,0-2.28,0L10.44,257.91Z"/><path class="cls-71" d="M81.46,300.93l49.07-28.46L60.16,229.89a2.27,2.27,0,0,0-2.28,0L10.44,257.38Z"/><path class="cls-70" d="M81.46,299.76l49.07-28.46L60.16,228.73a2.22,2.22,0,0,0-2.28,0L10.44,256.21Z"/><path class="cls-72" d="M81.46,299.23l49.07-28.47L60.16,228.19a2.27,2.27,0,0,0-2.28,0L10.44,255.67Z"/><path class="cls-70" d="M81.46,298.06l49.07-28.46L60.16,227a2.24,2.24,0,0,0-2.28,0L10.44,254.51Z"/><path class="cls-73" d="M81.46,297.52l49.07-28.46L60.16,226.49a2.22,2.22,0,0,0-2.28,0L10.44,254Z"/><path class="cls-70" d="M81.46,296.27l49.07-28.46L60.16,225.23a2.27,2.27,0,0,0-2.28,0L10.44,252.72Z"/><path class="cls-74" d="M81.46,295.73l49.07-28.46L60.16,224.69a2.24,2.24,0,0,0-2.28,0L10.44,252.18Z"/><path class="cls-70" d="M81.46,294.39l49.07-28.47L60.16,223.35a2.27,2.27,0,0,0-2.28,0L10.44,250.83Z"/><path class="cls-75" d="M81.46,293.85l49.07-28.46L60.16,222.81a2.27,2.27,0,0,0-2.28,0L10.44,250.3Z"/><path class="cls-76" d="M132.5,258.51l-75-45.36a2.4,2.4,0,0,0-2.43,0L4.57,242.43a6.25,6.25,0,0,0-3.14,5.42V255a2.45,2.45,0,0,0,1.46,2.24l76,45.91-1-9.78,2.34-4.5ZM16.16,261.94a7.39,7.39,0,0,1-3.34-5.77c0-2.13,1.5-3,3.34-1.91A7.36,7.36,0,0,1,19.51,260C19.51,262.15,18,263,16.16,261.94Z"/><path class="cls-77" d="M80.22,288.83l52.28-30.32-75-45.36a2.4,2.4,0,0,0-2.43,0L4.57,242.43Z"/><path class="cls-78" d="M79.67,302v-7a6.06,6.06,0,0,1,3-5.25l48.73-28.25v-2.22L81.26,288.4a6.07,6.07,0,0,0-3,5.26v6.95a2.4,2.4,0,0,0,1.65,2.28A2.24,2.24,0,0,1,79.67,302Z"/><path class="cls-79" d="M80.83,302.36a1.53,1.53,0,0,1-.75.2A1.52,1.52,0,0,1,78.57,301v-7.1a5.28,5.28,0,0,1,2.65-4.58l51.28-29.82v-1l-51.76,30a6.25,6.25,0,0,0-3.14,5.42V301a2.48,2.48,0,0,0,3.71,2.16l51.19-29.68v-1.21Z"/><path class="cls-80" d="M16.16,253.25c-2.33-1.34-4.22-.27-4.22,2.41a9.29,9.29,0,0,0,4.22,7.28c2.34,1.35,4.23.27,4.23-2.4A9.3,9.3,0,0,0,16.16,253.25Zm0,8.69a7.39,7.39,0,0,1-3.34-5.77c0-2.13,1.5-3,3.34-1.91A7.36,7.36,0,0,1,19.51,260C19.51,262.15,18,263,16.16,261.94Z"/><polygon class="cls-81" points="58.58 287.72 54.17 285.18 54.17 276.37 58.58 278.91 58.58 287.72"/><polygon class="cls-82" points="54.27 285.17 23.32 267.29 23.32 258.49 54.27 276.36 54.27 285.17"/><path class="cls-68" d="M77.08,280.24l44.41-25.43c2.11-1.22,2.14-1.85-.3-3.26L59.32,213.86c-2.44-1.4-3-1.28-5.13-.06L10,239.06c-2.11,1.22-1.85,2.39.59,3.8l61,37.26C74,281.52,75,281.46,77.08,280.24Z"/><polygon class="cls-83" points="117.47 254.34 99.49 243.78 74.77 279.17 117.47 254.34"/><path class="cls-84" d="M53.51,207.19,11.73,231.42a5.17,5.17,0,0,0-2.59,4.48V240a2,2,0,0,0,1.21,1.86l62.81,38,1.1-10,43.21-25.06-62-37.49A2,2,0,0,0,53.51,207.19Z"/><path class="cls-85" d="M74.26,269.77l43.21-25.06-62-37.49a2,2,0,0,0-2,0L11.73,231.42Z"/><path class="cls-86" d="M72.61,273.76v4a2,2,0,0,0,3,1.73l41-23.78V245.37L75.12,269.42A5,5,0,0,0,72.61,273.76Z"/><path class="cls-78" d="M73.81,278.87v-4a5,5,0,0,1,2.51-4.35L116.6,247.2v-1.83L75.12,269.42a5,5,0,0,0-2.51,4.34v4A2,2,0,0,0,74,279.61,1.82,1.82,0,0,1,73.81,278.87Z"/><path class="cls-87" d="M74.77,279.17a1.29,1.29,0,0,1-.62.17,1.26,1.26,0,0,1-1.26-1.25V274a4.35,4.35,0,0,1,2.2-3.78l42.38-24.65v-.85l-42.78,24.8a5.16,5.16,0,0,0-2.6,4.48v4.1a2.06,2.06,0,0,0,3.07,1.78l42.31-24.53v-1Z"/><ellipse class="cls-88" cx="200.03" cy="101.47" rx="14.73" ry="25.51" transform="translate(-23.87 114.82) rotate(-30.31)"/><path class="cls-89" d="M210,111c0,3.83-1.32,6.54-3.47,7.86-.06,0-2.21,1.41-2.28,1.44-2.24,1.25-.81-1.58-4.2-3.54-6.83-4-12.37-13.5-12.37-21.34,0-3.88-3.59-3.91-1.39-5.21L189,88.7c2.23-1.2,5.27-1,8.63,1C204.42,93.6,210,103.16,210,111Z"/><ellipse class="cls-90" cx="194.99" cy="105.4" rx="10.07" ry="17.44" transform="translate(-26.54 112.82) rotate(-30.31)"/><path class="cls-91" d="M207.21,96.47c1.57,2.43,1.1,5.53-1.05,6.91s-5.16.55-6.73-1.88-1.1-5.52,1-6.91S205.65,94.05,207.21,96.47Z"/><path class="cls-92" d="M195.19,91.12c-3.28-1.89-5.86-2.36-8.07-1.25,2.06-.58,4.62-.14,7.39,1.46,6.84,3.94,12.37,13.5,12.37,21.34,0,4.08-1.5,6.89-3.9,8.09,3-.85,4.58-3.64,4.58-8.3C207.56,104.62,202,95.06,195.19,91.12Z"/><ellipse class="cls-93" cx="200.03" cy="137.39" rx="14.73" ry="25.51" transform="translate(-41.99 119.73) rotate(-30.31)"/><path class="cls-94" d="M210,146.92c0,3.83-1.32,6.54-3.47,7.86-.06,0-2.21,1.41-2.28,1.44-2.24,1.25-.81-1.58-4.2-3.54-6.83-4-12.37-13.5-12.37-21.34,0-3.88-3.59-3.91-1.39-5.21l2.71-1.51c2.23-1.2,5.27-1,8.63,1C204.42,129.52,210,139.08,210,146.92Z"/><ellipse class="cls-95" cx="194.99" cy="141.32" rx="10.07" ry="17.44" transform="translate(-44.67 117.73) rotate(-30.31)"/><path class="cls-96" d="M207.21,132.4c1.57,2.42,1.1,5.52-1.05,6.9s-5.16.55-6.73-1.88-1.1-5.52,1-6.91S205.65,130,207.21,132.4Z"/><path class="cls-97" d="M195.19,127c-3.28-1.89-5.86-2.36-8.07-1.25,2.06-.58,4.62-.14,7.39,1.46,6.84,3.94,12.37,13.5,12.37,21.34,0,4.08-1.5,6.89-3.9,8.09,3-.84,4.58-3.64,4.58-8.3C207.56,140.54,202,131,195.19,127Z"/><ellipse class="cls-98" cx="200.03" cy="187.4" rx="14.73" ry="25.51" transform="translate(-67.24 126.57) rotate(-30.31)"/><path class="cls-99" d="M210,196.93c0,3.83-1.32,6.55-3.47,7.86l-2.28,1.45c-2.24,1.25-.81-1.59-4.2-3.55-6.83-3.94-12.37-13.5-12.37-21.34,0-3.87-3.59-3.91-1.39-5.2l2.71-1.51c2.23-1.21,5.27-1,8.63,1C204.42,179.54,210,189.09,210,196.93Z"/><ellipse class="cls-100" cx="194.99" cy="191.34" rx="10.07" ry="17.44" transform="translate(-69.91 124.56) rotate(-30.31)"/><path class="cls-101" d="M207.21,182.41c1.57,2.43,1.1,5.52-1.05,6.91s-5.16.55-6.73-1.88-1.1-5.52,1-6.91S205.65,180,207.21,182.41Z"/><path class="cls-102" d="M195.19,177.05c-3.28-1.89-5.86-2.35-8.07-1.24,2.06-.58,4.62-.15,7.39,1.45,6.84,4,12.37,13.5,12.37,21.34,0,4.08-1.5,6.89-3.9,8.09,3-.84,4.58-3.64,4.58-8.3C207.56,190.55,202,181,195.19,177.05Z"/><ellipse class="cls-103" cx="200.03" cy="238.49" rx="14.73" ry="25.51" transform="translate(-93.02 133.55) rotate(-30.31)"/><path class="cls-104" d="M210,248c0,3.83-1.32,6.54-3.47,7.85-.06,0-2.21,1.42-2.28,1.45-2.24,1.25-.81-1.58-4.2-3.54-6.83-3.95-12.37-13.5-12.37-21.34,0-3.88-3.59-3.91-1.39-5.21l2.71-1.51c2.23-1.2,5.27-1,8.63,1C204.42,230.62,210,240.18,210,248Z"/><path class="cls-105" d="M207.36,249.57c0,7.84-5.54,11-12.37,7.05s-12.38-13.5-12.38-21.34,5.54-11,12.38-7.05S207.36,241.73,207.36,249.57Z"/><path class="cls-106" d="M207.21,233.49c1.57,2.43,1.1,5.52-1.05,6.91s-5.16.55-6.73-1.88-1.1-5.52,1-6.91S205.65,231.07,207.21,233.49Z"/><path class="cls-107" d="M195.19,228.14c-3.28-1.89-5.86-2.36-8.07-1.25,2.06-.58,4.62-.15,7.39,1.45,6.84,3.95,12.37,13.5,12.37,21.35,0,4.08-1.5,6.89-3.9,8.09,3-.85,4.58-3.64,4.58-8.3C207.56,241.64,202,232.08,195.19,228.14Z"/><ellipse class="cls-108" cx="200.03" cy="271.49" rx="14.73" ry="25.51" transform="translate(-109.67 138.06) rotate(-30.31)"/><path class="cls-109" d="M210,281c0,3.83-1.32,6.54-3.47,7.85-.06,0-2.21,1.42-2.28,1.45-2.24,1.25-.81-1.58-4.2-3.54-6.83-3.95-12.37-13.5-12.37-21.34,0-3.88-3.59-3.91-1.39-5.21l2.71-1.51c2.23-1.2,5.27-1,8.63,1C204.42,263.62,210,273.18,210,281Z"/><path class="cls-110" d="M207.36,282.57c0,7.84-5.54,11-12.37,7.05s-12.38-13.5-12.38-21.34,5.54-11,12.38-7S207.36,274.73,207.36,282.57Z"/><path class="cls-111" d="M207.21,266.49c1.57,2.43,1.1,5.52-1.05,6.91s-5.16.55-6.73-1.88-1.1-5.52,1-6.91S205.65,264.07,207.21,266.49Z"/><path class="cls-112" d="M195.19,261.14c-3.28-1.89-5.86-2.36-8.07-1.25,2.06-.58,4.62-.15,7.39,1.45,6.84,4,12.37,13.5,12.37,21.35,0,4.08-1.5,6.89-3.9,8.09,3-.85,4.58-3.64,4.58-8.3C207.56,274.64,202,265.08,195.19,261.14Z"/><path class="cls-39" d="M194.42,100.77l-2.58-1.49v-2a7.3,7.3,0,0,0,1.69.78,1.26,1.26,0,0,0,1-.1,2.09,2.09,0,0,0,.68-1l1.66,1v18l-2.47-1.42Z"/><path class="cls-39" d="M190.92,145.48a6.76,6.76,0,0,1,.54-3,5,5,0,0,1,1.93-1.94,5.92,5.92,0,0,0,1.89-1.76,4.08,4.08,0,0,0,.53-2.17,4.17,4.17,0,0,0-.32-1.8,2.37,2.37,0,0,0-1-1c-.85-.5-1.28-.15-1.28,1v1.93l-2.33-1.35v-1.75c0-1.46.31-2.4.94-2.82s1.54-.28,2.74.41a7.1,7.1,0,0,1,2.74,2.75,8,8,0,0,1,.94,3.91,5.62,5.62,0,0,1-.68,2.83,7.06,7.06,0,0,1-2.37,2.24,4.6,4.6,0,0,0-1.48,1.32,2.88,2.88,0,0,0-.39,1.57v.39l4.7,2.71v2.57l-7.14-4.12Z"/><path class="cls-39" d="M191.71,197.68a7.94,7.94,0,0,1-.93-3.87v-1.47l2.34,1.35v1.6a2.65,2.65,0,0,0,1.28,2.52c.42.24.73.27.95.1s.33-.64.33-1.4V195a4.45,4.45,0,0,0-.38-2,3.1,3.1,0,0,0-1.24-1.25l-.83-.48v-2.57l.9.52c.49.28.86.35,1.11.2s.37-.57.37-1.26v-1.31a3.21,3.21,0,0,0-.34-1.56,2.32,2.32,0,0,0-.9-1c-.79-.45-1.19-.13-1.19,1v1.19l-2.33-1.35v-1c0-1.44.31-2.37.93-2.78s1.52-.29,2.68.39a6.87,6.87,0,0,1,2.7,2.7,7.9,7.9,0,0,1,.92,3.84v.65a3.89,3.89,0,0,1-.43,2.11,1.22,1.22,0,0,1-1.32.51v0a5.84,5.84,0,0,1,1.39,2.15,7.44,7.44,0,0,1,.43,2.61v1.6c0,1.45-.31,2.37-.93,2.78s-1.54.25-2.76-.45A7.1,7.1,0,0,1,191.71,197.68Z"/><path class="cls-39" d="M195.09,247.43l-4.71-2.72v-2.58l4.49-9.59,2.69,1.55v12.19l1.17.68v2.57l-1.17-.67v3.27l-2.47-1.42Zm0-2.57v-7l0,0-2.43,5.64Z"/><path class="cls-39" d="M191.84,282.34a8,8,0,0,1-1-3.91V277l2.34,1.35V280a2.67,2.67,0,0,0,1.28,2.5c.85.49,1.28.15,1.28-1v-4a2.67,2.67,0,0,0-1.28-2.52c-.85-.49-1.28-.15-1.28,1v.15l-2.34-1.35.45-9.81,6.52,3.76v2.57l-4.32-2.48-.2,4.18,0,0c.46-.61,1.17-.64,2.13-.08a4.91,4.91,0,0,1,2,2.23,7.9,7.9,0,0,1,.7,3.47v4.07c0,1.46-.31,2.4-.94,2.82s-1.55.28-2.74-.41A7.1,7.1,0,0,1,191.84,282.34Z"/><ellipse class="cls-113" cx="68.18" cy="235.44" rx="39.67" ry="20.4"/><path class="cls-114" d="M102.91,193H29.3v39.66h0c0,.09,0,.19,0,.29,0,11.84,16.48,21.43,36.8,21.43s36.81-9.59,36.81-21.43a2.64,2.64,0,0,0,0-.29h0Z"/><g class="cls-115"><path class="cls-116" d="M29.3,229.12v.29c0-.1,0-.2,0-.29Z"/><path class="cls-117" d="M102.91,229.41v-.29h0A2.64,2.64,0,0,1,102.91,229.41Z"/></g><ellipse class="cls-118" cx="66.1" cy="193.11" rx="36.81" ry="21.43"/><path class="cls-119" d="M29.3,200.72V201c0-.09,0-.19,0-.29Z"/><path class="cls-120" d="M102.91,201v-.29h0C102.9,200.82,102.91,200.92,102.91,201Z"/><polygon class="cls-121" points="99.09 217.33 99.09 193.79 33.11 193.79 33.11 217.24 66.21 236.52 99.09 217.33"/><polygon class="cls-122" points="66.18 228.99 66.18 231.07 123.55 197.62 123.55 195.53 66.18 228.99"/><polygon class="cls-123" points="66.21 228.99 66.21 231.07 8.66 197.52 8.66 195.47 66.21 228.99"/><polygon class="cls-124" points="8.66 195.47 66.21 228.99 123.55 195.53 65.93 161.98 8.66 195.47"/><path class="cls-125" d="M38.43,228.75c0,1.28-.91,1.8-2,1.15a4.43,4.43,0,0,1-2-3.48c0-1.28.9-1.8,2-1.16A4.49,4.49,0,0,1,38.43,228.75Z"/><path class="cls-125" d="M33.45,237.37s1.47-10.66,3.16-10.14S39.77,241,39.77,241h0a12.47,12.47,0,0,1-6.15-3.47Z"/><path class="cls-126" d="M32.45,235.93s1.47-10.66,3.16-10.13,3.16,13.78,3.16,13.78h0a12.39,12.39,0,0,1-6.15-3.47Z"/><path class="cls-127" d="M35.62,225.8c1.49,2.44,3,12.94,3,12.94-2.22-.51-4.57-1.23-6.19-2.81h0l.17.18c1.68,1.73,4.13,2.55,6.48,3.09C39.1,239.2,37.31,226.39,35.62,225.8Z"/><path class="cls-128" d="M37.6,238.2a11.42,11.42,0,0,1-4.09-2.62,39.36,39.36,0,0,1,2-8.38C36.17,228.88,37,233.65,37.6,238.2Z"/><path class="cls-125" d="M36.14,228.81a1,1,0,0,1-1-1V216.1a7.25,7.25,0,0,1,3.58-6.24L66.8,193.47a1,1,0,0,1,1,1.73L39.73,211.58a5.25,5.25,0,0,0-2.59,4.52v11.71A1,1,0,0,1,36.14,228.81Z"/><path class="cls-129" d="M35.55,228.34a1,1,0,0,1-1-1V215.63a7.25,7.25,0,0,1,3.58-6.24L66.21,193a1,1,0,0,1,1,1.73L39.14,211.12a5.23,5.23,0,0,0-2.59,4.51v11.71A1,1,0,0,1,35.55,228.34Z"/><path class="cls-130" d="M35.3,227.56a.29.29,0,0,1-.3-.3V215.54a6.54,6.54,0,0,1,3.23-5.63l28.08-16.39a.42.42,0,0,1,.15,0,.3.3,0,0,1,.26.15.25.25,0,0,1,0,.23.27.27,0,0,1-.14.18L38.54,210.43a5.91,5.91,0,0,0-2.94,5.11v11.72A.3.3,0,0,1,35.3,227.56Z"/><ellipse class="cls-131" cx="66.1" cy="194.52" rx="4.29" ry="2.5"/><path class="cls-132" d="M61.81,195.81v0Z"/><path class="cls-133" d="M70.4,195.84v0h0Z"/><polygon class="cls-134" points="35.14 227.81 33.4 237.79 34.77 238 35.14 227.81"/><polygon class="cls-135" points="34.69 227.58 32.61 236.92 33.77 237.29 34.69 227.58"/><polygon class="cls-136" points="35.69 228.76 35.01 238.88 36.4 238.94 35.69 228.76"/><polygon class="cls-137" points="35.22 228.59 34.13 238.09 35.33 238.34 35.22 228.59"/><polygon class="cls-138" points="36.67 229.44 36.84 239.57 38.23 239.52 36.67 229.44"/><polygon class="cls-139" points="36.21 229.7 35.91 239.26 37.13 239.41 36.21 229.7"/><path class="cls-140" d="M37.7,228.33c0,1.28-.9,1.8-2,1.16a4.46,4.46,0,0,1-2-3.49c0-1.28.9-1.8,2-1.15A4.43,4.43,0,0,1,37.7,228.33Z"/><path class="cls-141" d="M36.18,225.22A4.42,4.42,0,0,1,37.33,228c0,1.28-.91,1.79-2,1.15a3.39,3.39,0,0,1-.5-.37,3.86,3.86,0,0,0,.88.75c1.12.64,2,.12,2-1.16A4.5,4.5,0,0,0,36.18,225.22Z"/><path class="cls-142" d="M36.46,227.12c0,.68-.49,1-1.08.62a2.38,2.38,0,0,1-1.08-1.87c0-.68.48-1,1.08-.61A2.39,2.39,0,0,1,36.46,227.12Z"/></g></g></g></svg>