<svg xmlns="http://www.w3.org/2000/svg" viewBox="0 0 318.07 441.03"><defs><style>.cls-1{fill:#9e5aa0;}</style></defs><g id="Camada_2" data-name="Camada 2"><g id="Capa_1" data-name="Capa 1"><path class="cls-1" d="M309.34,0H8.73A8.73,8.73,0,0,0,0,8.73v156.7a8.73,8.73,0,0,0,8.73,8.73H309.34a8.73,8.73,0,0,0,8.73-8.73V8.73A8.73,8.73,0,0,0,309.34,0ZM300.6,156.7H17.47V17.47H300.6Z"/><path class="cls-1" d="M8.73,230.42H128A8.74,8.74,0,1,0,128,213H8.73a8.74,8.74,0,0,0,0,17.47Z"/><path class="cls-1" d="M309.34,213H166.81a8.74,8.74,0,1,0,0,17.47H309.34a8.74,8.74,0,0,0,0-17.47Z"/><path class="cls-1" d="M8.73,283.07H58.1a8.73,8.73,0,1,0,0-17.46H8.73a8.73,8.73,0,1,0,0,17.46Z"/><path class="cls-1" d="M309.34,265.61H96.94a8.73,8.73,0,1,0,0,17.46h212.4a8.73,8.73,0,1,0,0-17.46Z"/><path class="cls-1" d="M8.73,335.72H162.91a8.73,8.73,0,0,0,0-17.46H8.73a8.73,8.73,0,0,0,0,17.46Z"/><path class="cls-1" d="M309.34,318.26H201.74a8.73,8.73,0,0,0,0,17.46h107.6a8.73,8.73,0,0,0,0-17.46Z"/><path class="cls-1" d="M8.73,388.38h96a8.74,8.74,0,1,0,0-17.47H8.73a8.74,8.74,0,0,0,0,17.47Z"/><path class="cls-1" d="M309.34,370.91H143.52a8.74,8.74,0,1,0,0,17.47H309.34a8.74,8.74,0,0,0,0-17.47Z"/><path class="cls-1" d="M69.75,423.56h-61a8.74,8.74,0,0,0,0,17.47h61a8.74,8.74,0,0,0,0-17.47Z"/><path class="cls-1" d="M251.11,423.56H108.58a8.74,8.74,0,0,0,0,17.47H251.11a8.74,8.74,0,1,0,0-17.47Z"/></g></g></svg>