<svg xmlns="http://www.w3.org/2000/svg" xmlns:xlink="http://www.w3.org/1999/xlink" viewBox="0 0 318.07 441.03"><defs><style>.cls-1{fill:url(#Social_Shcool);}.cls-2{fill:url(#Social_Shcool-2);}.cls-3{fill:url(#Social_Shcool-3);}.cls-4{fill:url(#Social_Shcool-4);}.cls-5{fill:url(#Social_Shcool-5);}.cls-6{fill:url(#Social_Shcool-6);}.cls-7{fill:url(#Social_Shcool-7);}.cls-8{fill:url(#Social_Shcool-8);}.cls-9{fill:url(#Social_Shcool-9);}.cls-10{fill:url(#Social_Shcool-10);}.cls-11{fill:url(#Social_Shcool-11);}</style><linearGradient id="Social_Shcool" y1="87.08" x2="318.07" y2="87.08" gradientUnits="userSpaceOnUse"><stop offset="0" stop-color="#7c5aa2"/><stop offset="1" stop-color="#ea4c75"/></linearGradient><linearGradient id="Social_Shcool-2" y1="221.69" x2="136.71" y2="221.69" xlink:href="#Social_Shcool"/><linearGradient id="Social_Shcool-3" x1="158.07" y1="221.69" x2="318.07" y2="221.69" xlink:href="#Social_Shcool"/><linearGradient id="Social_Shcool-4" y1="274.34" x2="66.84" y2="274.34" xlink:href="#Social_Shcool"/><linearGradient id="Social_Shcool-5" x1="88.2" y1="274.34" x2="318.07" y2="274.34" xlink:href="#Social_Shcool"/><linearGradient id="Social_Shcool-6" y1="326.99" x2="171.64" y2="326.99" xlink:href="#Social_Shcool"/><linearGradient id="Social_Shcool-7" x1="193.01" y1="326.99" x2="318.07" y2="326.99" xlink:href="#Social_Shcool"/><linearGradient id="Social_Shcool-8" y1="379.64" x2="113.42" y2="379.64" xlink:href="#Social_Shcool"/><linearGradient id="Social_Shcool-9" x1="134.78" y1="379.64" x2="318.07" y2="379.64" xlink:href="#Social_Shcool"/><linearGradient id="Social_Shcool-10" y1="432.29" x2="78.48" y2="432.29" xlink:href="#Social_Shcool"/><linearGradient id="Social_Shcool-11" x1="99.85" y1="432.29" x2="259.85" y2="432.29" xlink:href="#Social_Shcool"/></defs><g id="Camada_2" data-name="Camada 2"><g id="Capa_1" data-name="Capa 1"><path class="cls-1" d="M309.34,0H8.73A8.73,8.73,0,0,0,0,8.73v156.7a8.73,8.73,0,0,0,8.73,8.73H309.34a8.73,8.73,0,0,0,8.73-8.73V8.73A8.73,8.73,0,0,0,309.34,0ZM300.6,156.7H17.47V17.47H300.6Z"/><path class="cls-2" d="M8.73,230.42H128A8.74,8.74,0,1,0,128,213H8.73a8.74,8.74,0,0,0,0,17.47Z"/><path class="cls-3" d="M309.34,213H166.81a8.74,8.74,0,1,0,0,17.47H309.34a8.74,8.74,0,0,0,0-17.47Z"/><path class="cls-4" d="M8.73,283.07H58.1a8.73,8.73,0,1,0,0-17.46H8.73a8.73,8.73,0,1,0,0,17.46Z"/><path class="cls-5" d="M309.34,265.61H96.94a8.73,8.73,0,1,0,0,17.46h212.4a8.73,8.73,0,1,0,0-17.46Z"/><path class="cls-6" d="M8.73,335.72H162.91a8.73,8.73,0,0,0,0-17.46H8.73a8.73,8.73,0,0,0,0,17.46Z"/><path class="cls-7" d="M309.34,318.26H201.74a8.73,8.73,0,0,0,0,17.46h107.6a8.73,8.73,0,0,0,0-17.46Z"/><path class="cls-8" d="M8.73,388.38h96a8.74,8.74,0,1,0,0-17.47H8.73a8.74,8.74,0,0,0,0,17.47Z"/><path class="cls-9" d="M309.34,370.91H143.52a8.74,8.74,0,1,0,0,17.47H309.34a8.74,8.74,0,0,0,0-17.47Z"/><path class="cls-10" d="M69.75,423.56h-61a8.74,8.74,0,0,0,0,17.47h61a8.74,8.74,0,0,0,0-17.47Z"/><path class="cls-11" d="M251.11,423.56H108.58a8.74,8.74,0,0,0,0,17.47H251.11a8.74,8.74,0,1,0,0-17.47Z"/></g></g></svg>