<svg xmlns="http://www.w3.org/2000/svg" viewBox="0 0 301.72 301.72"><defs><style>.cls-1{fill:#9e5aa0;}</style></defs><g id="Camada_2" data-name="Camada 2"><g id="Capa_1" data-name="Capa 1"><path class="cls-1" d="M150.86,0C67.68,0,0,67.68,0,150.86S67.68,301.72,150.86,301.72s150.86-67.67,150.86-150.86S234.05,0,150.86,0Zm73.87,261.57-5.36-9.28A8.74,8.74,0,0,0,204.24,261l5.36,9.28a132.2,132.2,0,0,1-50,13.39V257.85a8.74,8.74,0,0,0-17.47,0V283.7a132.2,132.2,0,0,1-50-13.39L97.48,261a8.73,8.73,0,1,0-15.12-8.74L77,261.57A134.31,134.31,0,0,1,40.34,225l9.33-5.39a8.73,8.73,0,0,0-8.73-15.13l-9.38,5.41A132.25,132.25,0,0,1,18,159.83H44.11a8.73,8.73,0,1,0,0-17.46H18A132.19,132.19,0,0,1,31.38,92.2l9.56,5.52a8.73,8.73,0,0,0,8.73-15.13l-9.56-5.52A134.21,134.21,0,0,1,76.8,40.29l5.56,9.62a8.73,8.73,0,1,0,15.12-8.73l-5.57-9.66A132.1,132.1,0,0,1,142.13,18V44.35a8.74,8.74,0,0,0,17.47,0V18a132.15,132.15,0,0,1,50.22,13.49l-5.58,9.66a8.73,8.73,0,1,0,15.13,8.73l5.55-9.62a134.08,134.08,0,0,1,36.69,36.78l-9.56,5.52a8.74,8.74,0,0,0,8.74,15.13l9.56-5.52a132.18,132.18,0,0,1,13.36,50.17h-26.1a8.73,8.73,0,0,0,0,17.46h26.07a131.88,131.88,0,0,1-13.52,50.06l-9.37-5.41a8.74,8.74,0,0,0-8.74,15.13l9.34,5.39A134.45,134.45,0,0,1,224.73,261.57Z"/><path class="cls-1" d="M213.15,89.11l-61.82,49.25-37.88-35.5a8.73,8.73,0,0,0-11.94,12.74l43.38,40.67.36.3.26.23c.24.18.49.35.74.51l.2.11c.2.12.4.23.61.33s.18.08.27.12a5.89,5.89,0,0,0,.58.24l.29.09a5.72,5.72,0,0,0,.59.17l.29.07.63.1.26,0a8.49,8.49,0,0,0,.88,0h.05a8.5,8.5,0,0,0,1.23-.1l.28,0a8.29,8.29,0,0,0,1.19-.3l.24-.09a8.26,8.26,0,0,0,1.19-.52h0a8.69,8.69,0,0,0,1.14-.76l.11-.08L224,102.77a8.73,8.73,0,0,0-10.88-13.66Z"/></g></g></svg>