<svg xmlns="http://www.w3.org/2000/svg" xmlns:xlink="http://www.w3.org/1999/xlink" viewBox="0 0 242.65 132.87"><defs><style>.cls-1{fill:url(#Social_Shcool);}.cls-2{fill:url(#Social_Shcool-2);}</style><linearGradient id="Social_Shcool" y1="66.43" x2="242.65" y2="66.43" gradientUnits="userSpaceOnUse"><stop offset="0" stop-color="#7c5aa2"/><stop offset="1" stop-color="#ea4c75"/></linearGradient><linearGradient id="Social_Shcool-2" x1="96.75" y1="66.51" x2="163.67" y2="66.51" xlink:href="#Social_Shcool"/></defs><g id="Camada_2" data-name="Camada 2"><g id="Capa_1" data-name="Capa 1"><path class="cls-1" d="M236,0H6.66A6.66,6.66,0,0,0,0,6.66V126.21a6.66,6.66,0,0,0,6.66,6.66H236a6.66,6.66,0,0,0,6.66-6.66V6.66A6.66,6.66,0,0,0,236,0Zm-6.66,119.54h-216V13.33h216Z"/><path class="cls-2" d="M100.26,107.9a6.68,6.68,0,0,0,6.84-.32l53.59-35.52a6.66,6.66,0,0,0,0-11.1L107.1,25.44A6.66,6.66,0,0,0,96.75,31v71A6.67,6.67,0,0,0,100.26,107.9Zm9.82-64.5L145,66.51,110.08,89.62Z"/></g></g></svg>