<svg xmlns="http://www.w3.org/2000/svg" viewBox="0 0 232.96 127.56"><defs><style>.cls-1{fill:#9e5aa0;}</style></defs><g id="Camada_2" data-name="Camada 2"><g id="Capa_1" data-name="Capa 1"><path class="cls-1" d="M226.56,0H6.4A6.39,6.39,0,0,0,0,6.4V121.16a6.39,6.39,0,0,0,6.4,6.4H226.56a6.4,6.4,0,0,0,6.4-6.4V6.4A6.4,6.4,0,0,0,226.56,0Zm-2.08,116.89H8.48V10.67h216Z"/><path class="cls-1" d="M100.21,98.62a5.48,5.48,0,0,0,2.64.67,5.62,5.62,0,0,0,3.1-.93l45-29.84a5.6,5.6,0,0,0,0-9.33L106,29.35A5.6,5.6,0,0,0,97.26,34V93.69A5.58,5.58,0,0,0,100.21,98.62Zm5.53-57.28,34,22.51-34,22.52Z"/></g></g></svg>